/* XPM */
static char *Tm91dmVhdStwcm9qZXQrJTI4MSUyOQ__[] = {
/* columns rows colors chars-per-pixel */
"64 64 81 1 ",
"  c black",
". c #040101",
"X c #0B0203",
"o c #0D0204",
"O c #0E0204",
"+ c #0F0204",
"@ c #120305",
"# c #1E0509",
"$ c #101010",
"% c #200509",
"& c #21050A",
"* c #23050A",
"= c #2B070D",
"- c #2C070D",
"; c #2E070E",
": c #360810",
"> c #3A0911",
", c #3C0912",
"< c #3D0912",
"1 c #3E0A12",
"2 c #3B171D",
"3 c gray19",
"4 c #3E3234",
"5 c #420B14",
"6 c #470B15",
"7 c #4A0C16",
"8 c #4C0C16",
"9 c #4E0C17",
"0 c #520D18",
"q c #540D19",
"w c #550D19",
"e c #540E19",
"r c #590E1A",
"t c #5B0E1B",
"y c #5E0F1C",
"u c #5F0F1C",
"i c #620F1D",
"p c #61101D",
"a c #65101E",
"s c #66101E",
"d c #67111F",
"f c #6F1121",
"g c #701322",
"h c #741222",
"j c #751323",
"k c #761223",
"l c #7A1324",
"z c #7D1325",
"x c #781424",
"c c #7A1425",
"v c #7C1425",
"b c #5B363C",
"n c gray25",
"m c #6B464C",
"M c #811426",
"N c #811527",
"B c #831427",
"V c #831527",
"C c #871528",
"Z c #861628",
"A c #871629",
"S c #871729",
"D c #881629",
"F c #891629",
"G c #8C172A",
"H c #8D172A",
"J c #8F172B",
"K c #8E182B",
"L c #93182C",
"P c #95182D",
"I c #95192D",
"U c #99192E",
"Y c #9B1A2F",
"T c #9F1B30",
"R c #A11B31",
"E c gray56",
"W c #909090",
"Q c #9E9294",
"! c gray75",
"~ c #CEC1C3",
"^ c None",
/* pixels */
"^^^^^^^^^^^^^^^^^^^^^^^^^^^^^^^^^^^^^^^^^^^^^^^^^^^^^^^^^^^^^^^^",
"^^^^^^^^^^^^^^^^^^^^^^^^^^^^^^^^^^^^^^^^^^^^^^^^^^^^^^^^^^^^^^^^",
"^^^^^^^^^^^^^^^^^^^^^^^^^^^^^^^^^^^^^^^^^^^^^^^^^^^^^^^^^^^^^^^^",
"^^^^^^^^^^^^^^^^^^^^^^^^^^^^^^^^^^^^^^^^^^^^^^^^^^^^^^^^^^^^^^^^",
"^^^^^^^^^^^^^^^^^^^^^^^^>>>>>>>>>>>>>>^^^^^^^^^^^^^^^^^^^^^^^^^^",
"^^^^^^^^^^^^^^^^^^^^^^^^78eeeeqqeeeeqe^^^^^^^^^^^^^^^^^^^^^^^^^^",
"^^^^^^^^^^^^^^^^^^^^^^>8akNSSSSSSSSSSxe>^^^^^^^^^^^^^^^^^^^^^^^^",
"^^^^^^^^^^^^^^^^^^^^^^8tlJTTTTDDSSSSScue^^^^^^^^^^^^^^^^^^^^^^^^",
"^^^^^^^^^^^^^^^^^^^^>7izLURRRKaqqqqqeicxe>^^^^^^^^^^^^^^^^^^^^^^",
"^^^^^^^^^^^^^^^^^^^^7rlJURRYKg5-=====5fcue^^^^^^^^^^^^^^^^^^^^^^",
"^^^^^^^^^^^^^^^^^^>7alJYTRRKd5&oOOOOO&5pcxe>^^^^^^^^^^^^^^^^^^^^",
"^^^^^^^^^^^^^^^^^^>8gDURRYKg5&o      X&5fcp0^^^^^^^^^^^^^^^^^^^^",
"^^^^^^^^^^^^^^^^^^>8gDURRKa5&X       .X&5pcc0>^^^^^^^^^^^^^^^^^^",
"^^^^^^^^^^^^^^^^^^7rhDURRSq-O          @=eSSe>^^^^^^^^^^^^^^^^^^",
"^^^^^^^^^^^^^^^^>8igzDURRSq-O          O-qSSe>^^^^^^^^^^^^^^^^^^",
"^^^^^^^^^^^^^^^^>9gBBDIUTSq=O$33$    $342qSSe>^^^^^^^^^^^^^^^^^^",
"^^^^^^^^^^^^^^^^>8fMMMDJUDq=O3WE3    3WQbeSSq>^^^^^^^^^^^^^^^^^^",
"^^^^^^^^^^^^^^^^>8fzhhzDUSq-On!!n    n!~meSSq>^^^^^^^^^^^^^^^^^^",
"^^^^^^^^^^^^^^^^>8fhrrhDUSq-On!!n    n!~meSSq>^^^^^^^^^^^^^^^^^^",
"^^^^^^^^^^^^^^^^>8ff99gDUSq-O3EE3    3EQbeMMe>^^^^^^^^^^^^^^^^^^",
"^^^^^^^^^^^^^^^^>9gd88dHUSq-O$33$    $3429gk8<^^^^^^^^^^^^^^^^^^",
"^^^^^^^^^^^^^^^^>9si68fCLDi5&X.        @=8fg8>^^^^^^^^^^^^^^^^^^",
"^^^^^^^^^^^^^^^^^^86<9fBCDSf5&X        @-9ff8>^^^^^^^^^^^^^^^^^^",
"^^^^^^^^^^^^^^^^^^>>>9ihzSLCi>#X.     X#<wsi7>^^^^^^^^^^^^^^^^^^",
"^^^^^^^^^^^^^^^^^^^^^^7rhBCMlt<&X    X&<iaq7^^^^^^^^^^^^^^^^^^^^",
"^^^^^^^^^^^^^^^^^^^^^^>7agghzhr<#O+++#<qaa7>^^^^^^^^^^^^^^^^^^^^",
"^^^^^^^^^^^^^^^^^^^^^^^^889rhzht<----<uaq7^^^^^^^^^^^^^^^^^^^^^^",
"^^^^^^^^^^^^^^^^^^^^^^^^888rhBCzpqqqqpvct7^^^^^^^^^^^^^^^^^^^^^^",
"^^^^^^^^^^^^^^^^^^^^^^>7ifghzCLPKSSSSKIKla7>^^^^^^^^^^^^^^^^^^^^",
"^^^^^^^^^^^^^^^^^^^^^^7tlDDDDJYRRRRRRRRUJlt7^^^^^^^^^^^^^^^^^^^^",
"^^^^^^^^^^^^^^^^^^^^>7alHUUUUYRRRRRRRRRTYJla7>^^^^^^^^^^^^^^^^^^",
"^^^^^^^^^^^^^^^^^^^^>8fDURRRRRRRRRRRRRRRRUDf8>^^^^^^^^^^^^^^^^^^",
"^^^^^^^^^^^^^^^^^^^^>7fCURRRRRRRRRRRRRRRRUDg9>^^^^^^^^^^^^^^^^^^",
"^^^^^^^^^^^^^^^^^^^^>8xLURRRRRRRRRRRRRRRRUJh9>^^^^^^^^^^^^^^^^^^",
"^^^^^^^^^^^^^^^^^^^^>0MYRRRRRRRRRRRRRRRRRTUBe>^^^^^^^^^^^^^^^^^^",
"^^^^^^^^^^^^^^^^^^^^7pKRRRRRRRRRRRRRRRRRRRRSe>^^^^^^^^^^^^^^^^^^",
"^^^^^^^^^^^^^^^^^^>7azIRRRRRRRRRRRRRRRRRRRRDq>^^^^^^^^^^^^^^^^^^",
"^^^^^^^^^^^^^^^^^^>8gDUTRRRRRRRRRTYUYRRRRRRHp8^^^^^^^^^^^^^^^^^^",
"^^^^^^^^^^^^^^^^^^>8fCURRRRRRRRRRYLHYRRRRRRIva8>^^^^^^^^^^^^^^^^",
"^^^^^^^^^^^^^^^^^^>8fCURRRRRRRRRRUHDURRRRRRUDg8>^^^^^^^^^^^^^^^^",
"^^^^^^^^^^^^^^^^^^>8gDURRRRRRRRRRIDDURRRRRRUCf8>^^^^^^^^^^^^^^^^",
"^^^^^^^^^^^^^^^^^^>8fDURRRRRRRRRYLllJYRRRRYJCf8>^^^^^^^^^^^^^^^^",
"^^^^^^^^^^^^^^^^^^>8gDURRRRRRRRYJlttlJYRRYJCBf8>^^^^^^^^^^^^^^^^",
"^^^^^^^^^^^^^^^^^^7rhCLYRRYYYRYLCg88fCLYRUCBMf8>^^^^^^^^^^^^^^^^",
"^^^^^^^^^^^^^^^^>8ihzBBJYYJJYYJDBg98dBCJYUCBMf8>^^^^^^^^^^^^^^^^",
"^^^^^^^^^^^^^^^^>9fBBBBCLPHHPLDzht<<ihlCLLCMMf8>^^^^^^^^^^^^^^^^",
"^^^^^^^^^^^^^^^^>8fBMBBBBHPPHCBhr<##<rgBCCBBMf9>^^^^^^^^^^^^^^^^",
"^^^^^^^^^^^^^^^^>8flfhlMBCLLCzgy<*Xo-9fBMlhhlf8>^^^^^^^^^^^^^^^^",
"^^^^^^^^^^^^^^^^>8fhrrhBBBCCMhr<#o.o-9gBBhrrhf8>^^^^^^^^^^^^^^^^",
"^^^^^^^^^^^^^^^^>7ai58gzghlBMf8-o  o&<thzhrraa7>^^^^^^^^^^^^^^^^",
"^^^^^^^^^^^^^^^^^^8558fgrrhBMf8-o  .o#<rgzhiq7^^^^^^^^^^^^^^^^^^",
"^^^^^^^^^^^^^^^^^^<>>8ii79iffi7-@    o-5ifga7>^^^^^^^^^^^^^^^^^^",
"^^^^^^^^^^^^^^^^^^^^><87^^7885<:^^^^ O-58888^^^^^^^^^^^^^^^^^^^^",
"^^^^^^^^^^^^^^^^^^^^>>>>^^==-;:>^^^^ O&-:>>>^^^^^^^^^^^^^^^^^^^^",
"^^^^^^^^^^^^^^^^^^^^^^^^^^OO@@^^^^^^^^O@^^^^^^^^^^^^^^^^^^^^^^^^",
"^^^^^^^^^^^^^^^^^^^^^^^^^^    ^^^^^^^^  ^^^^^^^^^^^^^^^^^^^^^^^^",
"^^^^^^^^^^^^^^^^^^^^^^^^^^^^  ^^^^^^^^  ^^^^^^^^^^^^^^^^^^^^^^^^",
"^^^^^^^^^^^^^^^^^^^^^^^^^^^^  ^^^^^^^^  ^^^^^^^^^^^^^^^^^^^^^^^^",
"^^^^^^^^^^^^^^^^^^^^^^^^^^^^  ^^^^^^^^  ^^^^^^^^^^^^^^^^^^^^^^^^",
"^^^^^^^^^^^^^^^^^^^^^^^^^^^^  ^^^^^^^^  ^^^^^^^^^^^^^^^^^^^^^^^^",
"^^^^^^^^^^^^^^^^^^^^^^^^^^^^^^^^^^^^^^^^^^^^^^^^^^^^^^^^^^^^^^^^",
"^^^^^^^^^^^^^^^^^^^^^^^^^^^^^^^^^^^^^^^^^^^^^^^^^^^^^^^^^^^^^^^^",
"^^^^^^^^^^^^^^^^^^^^^^^^^^^^^^^^^^^^^^^^^^^^^^^^^^^^^^^^^^^^^^^^",
"^^^^^^^^^^^^^^^^^^^^^^^^^^^^^^^^^^^^^^^^^^^^^^^^^^^^^^^^^^^^^^^^"
};
