/* XPM */
static char *Tm91dmVhdStwcm9qZXQ_[] = {
/* columns rows colors chars-per-pixel */
"64 64 188 2 ",
"   c #040405",
".  c #060608",
"X  c #090709",
"o  c #0C0A0C",
"O  c #13090B",
"+  c #1A0B0D",
"@  c #110708",
"#  c #100F12",
"$  c #1A0F11",
"%  c #141315",
"&  c #191215",
"*  c #161619",
"=  c #18171A",
"-  c #17191C",
";  c #191B1D",
":  c #250D0E",
">  c #2D1012",
",  c #26191B",
"<  c #3B1415",
"1  c #311112",
"2  c #240E10",
"3  c #1D1F21",
"4  c #232326",
"5  c #28262A",
"6  c #2B2A2D",
"7  c #26272B",
"8  c #3F2124",
"9  c #3B282C",
"0  c #3C2E27",
"q  c #2E2D32",
"w  c #332F34",
"e  c #363439",
"r  c #39373C",
"t  c #3A393E",
"y  c #353337",
"u  c #421617",
"i  c #451618",
"p  c #421A1C",
"a  c #5B1B1C",
"s  c #521A1B",
"d  c #621E1F",
"f  c #6C1F1F",
"g  c #461E20",
"h  c #651F20",
"j  c #4B2022",
"k  c #4A2C30",
"l  c #4A373B",
"z  c #552E2F",
"x  c #6D2122",
"c  c #6B2729",
"v  c #672425",
"b  c #782525",
"n  c #693F27",
"m  c #643336",
"M  c #7A3233",
"N  c #3D3D42",
"B  c #403F44",
"V  c #5E3F43",
"C  c #3C4247",
"Z  c #3E454A",
"A  c #404043",
"S  c #4C484E",
"D  c #46464B",
"F  c #55494D",
"G  c #4D4C51",
"H  c #474C51",
"J  c #524E54",
"K  c #584B51",
"L  c #4B5156",
"P  c #555157",
"I  c #56555B",
"U  c #59585A",
"Y  c #5A575C",
"T  c #6A494E",
"R  c #71625D",
"E  c #5B5B62",
"W  c #5D646B",
"Q  c #5B6167",
"!  c #636365",
"~  c #676469",
"^  c #68636B",
"/  c #79676E",
"(  c #636E75",
")  c #6B6B73",
"_  c #746F77",
"`  c #6D747B",
"'  c #677078",
"]  c #77747A",
"[  c #7A767E",
"{  c #862829",
"}  c #8D2929",
"|  c #802525",
" . c #962C2D",
".. c #9C2E2F",
"X. c #953435",
"o. c #A33131",
"O. c #AC3232",
"+. c #A73C3D",
"@. c #A32F2F",
"#. c #955027",
"$. c #AD423B",
"%. c #BA523B",
"&. c #BF5B32",
"*. c #C35E36",
"=. c #C26127",
"-. c #CE6C33",
";. c #8B3E40",
":. c #8A4549",
">. c #9D4F52",
",. c #82565A",
"<. c #9A5559",
"1. c #97494C",
"2. c #A24445",
"3. c #B74D4A",
"4. c #A75D48",
"5. c #A15351",
"6. c #B25455",
"7. c #8B604F",
"8. c #B1674D",
"9. c #B9714B",
"0. c #B46B59",
"q. c #945F65",
"w. c #936267",
"e. c #97696B",
"r. c #9F7064",
"t. c #8D6D74",
"y. c #89757C",
"u. c #8E7879",
"i. c #93777E",
"p. c #A7716B",
"a. c #CB7F7F",
"s. c #C37872",
"d. c #AD8177",
"f. c #7C7A83",
"g. c #787F88",
"h. c #837E87",
"j. c #8B7B83",
"k. c #7B8187",
"l. c #7A8890",
"z. c #86848D",
"x. c #8E8E8F",
"c. c #88858E",
"v. c #838A93",
"b. c #8C8991",
"n. c #8D919B",
"m. c #86939C",
"M. c #98979C",
"N. c #948890",
"B. c #A59794",
"V. c #8898A1",
"C. c #929CA5",
"Z. c #9B9BA3",
"A. c #BB9CA0",
"S. c #95A2AB",
"D. c #9AA2AB",
"F. c #98A7B1",
"G. c #9BACB6",
"H. c #9DAEB8",
"J. c #A2A2A2",
"K. c #ABABAD",
"L. c #ACADB3",
"P. c #A3B3BC",
"I. c #A9B3B9",
"U. c #B5A8AD",
"Y. c #C39798",
"T. c #C88585",
"R. c #CFA29E",
"E. c #DCBABA",
"W. c #E0B2B2",
"Q. c #A8B7C0",
"!. c #A9B9C1",
"~. c #B9BBC1",
"^. c #B9C4CB",
"/. c #C5C5C5",
"(. c #C9C8CC",
"). c #D7C9CA",
"_. c #C1CCD2",
"`. c #D7DADC",
"'. c #CFD4D8",
"]. c #DAE0E4",
"[. c #E1E1E1",
"{. c #EBEBEC",
"}. c #E5E6E8",
"|. c #F5E5E5",
" X c #F1EBEC",
".X c #F3F5F6",
"XX c #FBFBFB",
"oX c None",
/* pixels */
"oXoXoXoXoXoXoXoXoXoXoXoXoXoXoXoXoXoXoXoX. . . . . . . . . . . . oXoXoXoXoXoXoXoXoXoXoXoXoXoXoXoXoXoXoXoXoXoXoXoXoXoXoXoXoXoXoXoX",
"oXoXoXoXoXoXoXoXoXoXoXoXoXoXoXoXoXoXoXoX. . . . . . . . . X . . oXoXoXoXoXoXoXoXoXoXoXoXoXoXoXoXoXoXoXoXoXoXoXoXoXoXoXoXoXoXoXoX",
"oXoXoXoXoXoXoXoXoXoXoXoXoXoXoXoXoXoXoXoX. . X O O + + + + + + + oXoXoXoXoXoXoXoXoXoXoXoXoXoXoXoXoXoXoXoXoXoXoXoXoXoXoXoXoXoXoXoX",
"oXoXoXoXoXoXoXoXoXoXoXoXoXoXoXoXoXoXoXoX. . o + > < i i i i < < > oXoXoXoXoXoXoXoXoXoXoXoXoXoXoXoXoXoXoXoXoXoXoXoXoXoXoXoXoXoXoX",
"oXoXoXoXoXoXoXoXoXoXoXoXoXoXoXoXoXoXoXoX. . O > i h c x x x h s < + . oXoXoXoXoXoXoXoXoXoXoXoXoXoXoXoXoXoXoXoXoXoXoXoXoXoXoXoXoX",
"oXoXoXoXoXoXoXoXoXoXoXoXoXoXoXoXoXoXoXoX. . + < d { .... ...{ d < + . . oXoXoXoXoXoXoXoXoXoXoXoXoXoXoXoXoXoXoXoXoXoXoXoXoXoXoXoX",
"oXoXoXoXoXoXoXoXoXoXoXoXoXoXoXoXoXoXoXoX. . + < h { ..X.o.+.X.v p & . . oXoXoXoXoXoXoXoXoXoXoXoXoXoXoXoXoXoXoXoXoXoXoXoXoXoXoXoX",
"oXoXoXoXoXoXoXoXoXoXoXoXoXoXoXoXoXoXoXoXoX. + < s h c { :.1.:.m j $ . . . oXoXoXoXoXoXoXoXoXoXoXoXoXoXoXoXoXoXoXoXoXoXoXoXoXoXoX",
"oXoXoXoXoXoXoXoXoXoXoXoXoXoXoXoXoXoXoXoXoXoXoX> < i g m T ,.,.V 9 & . . . . . . . . . . . . . oXoXoXoXoXoXoXoXoXoXoXoXoXoXoXoXoX",
"oXoXoXoXoXoXoXoXoXoXoXoXoXoXoXoXoXoXoXoXoXoXoXoX+ + , k T / / K w % . . . . . . . . . . . . . . oXoXoXoXoXoXoXoXoXoXoXoXoXoXoXoX",
"oXoXoXoXoXoXoXoXoXoXoXoXoXoXoXoXoXoXoXoXoXoXoXoX% * 4 B Y [ _ E C 7 ; ; ; ; ; ; ; 3 ; ; - - - - oXoXoXoXoXoXoXoXoXoXoXoXoXoXoXoX",
"oXoXoXoXoXoXoXoXoXoXoXoXoXoXoXoXoXoXoXoXoXoXoX4 q w B K ^ [ f.^ E H Z Z Z Z Z Z Z Z Z Z Z Z C C q oXoXoXoXoXoXoXoXoXoXoXoXoXoXoX",
"oXoXoXoXoXoXoXoXoXoXoXoXoXoXoXoXoXoXoXoXoX. % q N G E ^ / f.f.f.` ' ( ( ( ' ( ( ( ( ( ( ( ( W L N - . oXoXoXoXoXoXoXoXoXoXoXoXoX",
"oXoXoXoXoXoXoXoXoXoXoXoXoXoXoXoXoXoXoXoX. . * w G ^ _ ] h.h.h.v.v.m.V.V.V.V.V.V.V.V.V.V.V.V.l.W C - . . oXoXoXoXoXoXoXoXoXoXoXoX",
"oXoXoXoXoXoXoXoXoXoXoXoXoXoXoXoXoXoXoXoX* * 4 B E f.h.c.h.c.b.V.S.G.H.G.G.G.G.G.G.H.G.G.H.G.V.( Z ; . . oXoXoXoXoXoXoXoXoXoXoXoX",
"oXoXoXoXoXoXoXoXoXoXoXoXoXoXoXoXoXoXoX4 q w B E ) h.n.n.n.n.V.C.S.F.G.G.G.G.G.H.G.G.G.H.G.H.V.( Z ; . . oXoXoXoXoXoXoXoXoXoXoXoX",
"oXoXoXoXoXoXoXoXoXoXoXoXoXoXoXoXoX. % q N G E ) k.n.V.C.C.C.C.S.F.G.G.G.H.G.G.G.H.G.H.G.G.G.V.( Z ; . . oXoXoXoXoXoXoXoXoXoXoXoX",
"oXoXoXoXoXoXoXoXoXoXoXoXoXoXoXoX. . * y G ^ [ z.n.S.G.F.F.F.G.H.G.G.G.G.G.G.G.G.G.H.G.G.G.G.V.( Z ; . . oXoXoXoXoXoXoXoXoXoXoXoX",
"oXoXoXoXoXoXoXoXoXoXoXoXoXoXoXoX. . * e I [ b.n.S.F.H.H.P.!.!.!.P.^.^.P.!.!.^.P.!.!.!.!.!.!.S.' Z ; . . oXoXoXoXoXoXoXoXoXoXoXoX",
"oXoXoXoXoXoXoXoXoXoXoXoXoXoXoXoX. . * t E g.n.C.S.G.H.!.~.^.^._.^.^._._._.^._.^._.^._._._.^.I.k.L 3 . . oXoXoXoXoXoXoXoXoXoXoXoX",
"oXoXoXoXoXoXoXoXoXoXoXoXoXoXoXoX. . - N W v.C.S.F.G.P.^._.`.].].].].].].].].].].].].].].[.`./.x.U 4 . . oXoXoXoXoXoXoXoXoXoXoXoX",
"oXoXoXoXoXoXoXoXoXoXoXoXoXoXoXoX. . - Z ( m.F.F.G.G.Q.^.'.{..X.X.X.X.X.X.X.X.X.X.X.X.X.X.X.X`.M.Q 4 . . oXoXoXoXoXoXoXoXoXoXoXoX",
"oXoXoXoXoXoXoXoXoXoXoXoXoXoXoXoX. . ; Z ' V.G.G.G.G.!._.]..XXX.X{.{.].].[.[.[.[.[.[.].[.[.[./.x.U 4   . oXoXoXoXoXoXoXoXoXoXoXoX",
"oXoXoXoXoXoXoXoXoXoXoXoXoXoXoXoX. . ; Z ( V.G.G.G.G.Q._.]..X.X[./.K.J.J.J.J.J.J.J.J.J.J.J.J.x.! C - . . oXoXoXoXoXoXoXoXoXoXoXoX",
"oXoXoXoXoXoXoXoXoXoXoXoXoXoXoXoX. . ; Z ( V.G.G.G.H.Q._.]..X{./.J.] ! ! ! ! ! ! ! ! ! ! ! ! U A 7 % . . oXoXoXoXoXoXoXoXoXoXoXoX",
"oXoXoXoXoXoXoXoXoXoXoXoXoXoXoXoX. . ; Z ( V.G.G.G.G.Q._.]..X[.K.] A 4 4 4 7 7 4 4 4 4 7 4 4 4 - % o . . oXoXoXoXoXoXoXoXoXoXoXoX",
"oXoXoXoXoXoXoXoXoXoXoXoXoXoXoXoX. . ; Z ( m.F.G.G.G.Q._.]..X}.K.] A 4 4 4 4 4 - % X X % 3 4 4 * % X . . oXoXoXoXoXoXoXoXoXoXoXoX",
"oXoXoXoXoXoXoXoXoXoXoXoXoXoXoXoX. . - N W v.C.S.F.G.Q._.]..X{.(.J.] ! ! ! ! U A 5 % % 5 A U U A 7 % . . oXoXoXoXoXoXoXoXoXoXoXoX",
"oXoXoXoXoXoXoXoXoXoXoXoXoXoXoXoX. . - r E g.n.C.C.G.Q._.]..X X`./.K.J.J.J.J.x.R A - ; A ~ x.x.! C ; X . oXoXoXoXoXoXoXoXoXoXoXoX",
"oXoXoXoXoXoXoXoXoXoXoXoXoXoXoXoX. . - e I ] v.n.C.G.Q._.]..XXX.X{.[.[.[.[.[./.x.U 4 4 U x././.x.U 3 . . oXoXoXoXoXoXoXoXoXoXoXoX",
"oXoXoXoXoXoXoXoXoXoXoXoXoXoXoXoX. . % q S ^ [ z.n.C.P.^.'.}. X|. X|.|.|.|.|.).B.R 0 0 R B.).).M.U 3 . . oXoXoXoXoXoXoXoXoXoXoXoX",
"oXoXoXoXoXoXoXoXoXoXoXoXoXoXoXoX. . # 4 e H E ) g.n.D.L.~.(.'.).E.W.W.W.W.E.R.d.7.n n 7.d.R.R.e.F , . . oXoXoXoXoXoXoXoXoXoXoXoX",
"oXoXoXoXoXoXoXoXoXoXoXoXoXoXoXoX. . # * 4 q B I _ h.n.C.L.L.U.A.Y.T.a.a.a.a.s.0.4.#.#.4.8.p.p.,.z , . . oXoXoXoXoXoXoXoXoXoXoXoX",
"oXoXoXoXoXoXoXoXoXoXoXoXoXoXoXoX. . . # # % 4 B E f.h.h.N.N.N.p.r.8.3.3.3.3.3.%.&.=.=.&.*.%.2.M g $ . . oXoXoXoXoXoXoXoXoXoXoXoX",
"oXoXoXoXoXoXoXoXoXoXoXoXoXoXoXoX. . . . . . % w K / j.j.j.t.t.q.5.2.+.+.+.+.$.%.*.-.-.*.3.$.X.c < + . . oXoXoXoXoXoXoXoXoXoXoXoX",
"oXoXoXoXoXoXoXoXoXoXoXoXoXoXoXoXoX. . . . . $ 9 V ,.w.w.q.q.q.q.<.>.>.>.>.>.5.4.8.9.9.8.8.5.:.m k + . . oXoXoXoXoXoXoXoXoXoXoXoX",
"oXoXoXoXoXoXoXoXoXoXoXoXoXoXoXoXoXoXoX. . . $ 8 m ;.>.>.>.>.>.<.<.q.w.w.w.q.w.e.r.r.p.r.e.q.,.V 9 % . . oXoXoXoXoXoXoXoXoXoXoXoX",
"oXoXoXoXoXoXoXoXoXoXoXoXoXoXoXoXoXoXoXoX. X $ g c ;.+.+.+.O.2.<.w.t.y.y.j.y.y.u.u.i.d.[ y.j./ K w % . . oXoXoXoXoXoXoXoXoXoXoXoX",
"oXoXoXoXoXoXoXoXoXoXoXoXoXoXoXoXoXoXoXoXO X $ g c ;.+.+.+.+.2.<.e.j.z.z.c.c.c.c.h.c.c.c.c.c.f.P y * . . oXoXoXoXoXoXoXoXoXoXoXoX",
"oXoXoXoXoXoXoXoXoXoXoXoXoXoXoXoXoXoXoXp 2 o $ g m ;.>.>.>.>.q.e.j.b.n.n.n.n.b.n.n.n.n.b.n.n.g.E t * . . oXoXoXoXoXoXoXoXoXoXoXoX",
"oXoXoXoXoXoXoXoXoXoXoXoXoXoXoXoXoXO.} a < O $ 9 V ,.q.q.q.w.e.j.N.M.C.C.C.C.C.C.C.C.C.C.C.C.l.E N - . . oXoXoXoXoXoXoXoXoXoXoXoX",
"oXoXoXoXoXoXoXoXoXoXoXoXoXoXoXoXO.O. .h < $ * w K / j.y.y.j.j.c.M.C.F.F.F.F.F.F.F.F.F.F.F.F.m.( Z ; . . oXoXoXoXoXoXoXoXoXoXoXoX",
"oXoXoXoXoXoXoXoXoXoXoXoXoXoXoXoXO.O...x i + * y P _ h.h.h.h.h.v.v.m.V.V.V.V.V.V.V.l.V.C.S.F.m.( C - . . oXoXoXoXoXoXoXoXoXoXoXoX",
"oXoXoXoXoXoXoXoXoXoXoXoXoXoXoXO.O.O. .x i $ * y P ] h.h.h.h.h.f.f.' ( ( ( ( ( ' g.W g.g.v.V.l.E N - . . oXoXoXoXoXoXoXoXoXoXoXoX",
"oXoXoXoXoXoXoXoXoXoXoXoXoXO.O.O.O.O...x i + % y P _ h.h.h.h.h.^ E D Z Z Z Z Z Z C Z H W g.g.f.E r * . . oXoXoXoXoXoXoXoXoXoXoXoX",
"oXoXoXoXoXoXoXoXoXoXoXoXO.O.O.O.O.O. .x i + * y K _ h.h.h.j.] E N 7 ; ; ; ; ; ; - - 7 N E f.f.P e - . . oXoXoXoXoXoXoXoXoXoXoXoX",
"oXoXoXoXoXoXoXoXoXoXoXoXO.O.O.O.O.O. .x i + * y P ] h.f.[ _ ^ F e , + O o X X o # % 3 N G ^ ^ S q * . . oXoXoXoXoXoXoXoXoXoXoXoX",
"oXoXoXoXoXoXoXoXoXoXoXoXO.O.O.O.O.O...h i + * y J _ [ _ ^ Y F B k g < > $ @ o = 4 q N N D G G N 7 #     oXoXoXoXoXoXoXoXoXoXoXoX",
"oXoXoXoXoXoXoXoXoXoXoXoXO.O.O.O.O.O. .x i : * y J _ [ ^ J B y k z v d i > O # 4 e S J D B e w 4 ; o . oXoXoXoXoXoXoXoXoXoXoXoXoX",
"oXoXoXoXoXoXoXoXoXoXoXoXO.O.O.O.O.O. .h i + * y P _ ] Y N 4 , s h { { h < O % w S ^ ^ J r 4 % % # . oXoXoXoXoXoXoXoXoXoXoXoXoXoX",
"oXoXoXoXoXoXoXoXoXoXoXoX..@.o.o.@.@. .d < + % q S ^ ^ S w % + < h  .} h u + % q S ~ ~ S w % .     oXoXoXoXoXoXoXoXoXoXoXoXoXoXoX",
"oXoXoXoXoXoXoXoXoXoXoXoX| { }  .} } b s 1 O # 4 e S S t 5 % O < a b b s > O # 4 y S S t 5 % .     oXoXoXoXoXoXoXoXoXoXoXoXoXoXoX",
"oXoXoXoXoXoXoXoXoXoXoXoXoXf f f f f a < 2 o o * 4 w w 5 ; o @ > i d a < : o o = 4 w q 5 ; #     oXoXoXoXoXoXoXoXoXoXoXoXoXoXoXoX",
"oXoXoXoXoXoXoXoXoXoXoXoXoXoXoXoXoXoX: O o X X o # # * % o X oXoXoXoX: O o X X o # % * # o . oXoXoXoXoXoXoXoXoXoXoXoXoXoXoXoXoXoX",
"oXoXoXoXoXoXoXoXoXoXoXoXoXoXoXoXoXoXoX  .   . .   X       oXoXoXoXoXoX      . . . .   .   oXoXoXoXoXoXoXoXoXoXoXoXoXoXoXoXoXoXoX",
"oXoXoXoXoXoXoXoXoXoXoXoXoXoXoXoXoXoXoX        .   .       oXoXoXoXoXoX    .   .   .       oXoXoXoXoXoXoXoXoXoXoXoXoXoXoXoXoXoXoX",
"oXoXoXoXoXoXoXoXoXoXoXoXoXoXoXoXoXoXoXoX    .     .     oXoXoXoXoXoXoXoX        .       oXoXoXoXoXoXoXoXoXoXoXoXoXoXoXoXoXoXoXoX",
"oXoXoXoXoXoXoXoXoXoXoXoXoXoXoXoXoXoXoXoXoXoXoXoXoXoXoXoXoXoXoXoXoXoXoXoXoXoXoXoXoXoXoXoXoXoXoXoXoXoXoXoXoXoXoXoXoXoXoXoXoXoXoXoX",
"oXoXoXoXoXoXoXoXoXoXoXoXoXoXoXoXoXoXoXoXoXoXoXoXoXoXoXoXoXoXoXoXoXoXoXoXoXoXoXoXoXoXoXoXoXoXoXoXoXoXoXoXoXoXoXoXoXoXoXoXoXoXoXoX",
"oXoXoXoXoXoXoXoXoXoXoXoXoXoXoXoXoXoXoXoXoXoXoXoXoXoXoXoXoXoXoXoXoXoXoXoXoXoXoXoXoXoXoXoXoXoXoXoXoXoXoXoXoXoXoXoXoXoXoXoXoXoXoXoX",
"oXoXoXoXoXoXoXoXoXoXoXoXoXoXoXoXoXoXoXoXoXoXoXoXoXoXoXoXoXoXoXoXoXoXoXoXoXoXoXoXoXoXoXoXoXoXoXoXoXoXoXoXoXoXoXoXoXoXoXoXoXoXoXoX",
"oXoXoXoXoXoXoXoXoXoXoXoXoXoXoXoXoXoXoXoXoXoXoXoXoXoXoXoXoXoXoXoXoXoXoXoXoXoXoXoXoXoXoXoXoXoXoXoXoXoXoXoXoXoXoXoXoXoXoXoXoXoXoXoX",
"oXoXoXoXoXoXoXoXoXoXoXoXoXoXoXoXoXoXoXoXoXoXoXoXoXoXoXoXoXoXoXoXoXoXoXoXoXoXoXoXoXoXoXoXoXoXoXoXoXoXoXoXoXoXoXoXoXoXoXoXoXoXoXoX",
"oXoXoXoXoXoXoXoXoXoXoXoXoXoXoXoXoXoXoXoXoXoXoXoXoXoXoXoXoXoXoXoXoXoXoXoXoXoXoXoXoXoXoXoXoXoXoXoXoXoXoXoXoXoXoXoXoXoXoXoXoXoXoXoX"
};
