/* XPM */
static char *Tm91dmVhdStwcm9qZXQ_[] = {
/* columns rows colors chars-per-pixel */
"64 64 204 2 ",
"   c #523B40",
".  c #604341",
"X  c #634442",
"o  c #6A4743",
"O  c #624A47",
"+  c #6D4843",
"@  c #6F4B46",
"#  c #604A49",
"$  c #6A4E4A",
"%  c #704F49",
"&  c #7B5244",
"*  c #7C5546",
"=  c #74514A",
"-  c #74564B",
";  c #76554C",
":  c #7E594A",
">  c #7F5B4C",
",  c #7F5C4C",
"<  c #685853",
"1  c #67575E",
"2  c #67575F",
"3  c #605958",
"4  c #635A59",
"5  c #675D59",
"6  c #6A5E59",
"7  c #6A5F59",
"8  c #6D5E58",
"9  c #725D54",
"0  c #755D55",
"q  c #705858",
"w  c #7D5D5A",
"e  c #6E605A",
"r  c #7C6156",
"t  c #71615A",
"y  c #74635B",
"u  c #78645B",
"i  c #7D655A",
"p  c #7A675E",
"a  c #725D60",
"s  c #606060",
"d  c #6C6461",
"f  c #7C6161",
"g  c #7E6D62",
"h  c #706E6F",
"j  c #756D6C",
"k  c #786D6A",
"l  c #79696F",
"z  c #7F716D",
"x  c #736870",
"c  c #776C75",
"v  c #727376",
"b  c #855645",
"n  c #865A47",
"m  c #895A45",
"M  c #8C5B45",
"N  c #8C5B46",
"B  c #81594B",
"V  c #815B4A",
"C  c #8B5F4C",
"Z  c #935E46",
"A  c #935E47",
"S  c #955F47",
"D  c #965F47",
"F  c #9A5F48",
"G  c #89604D",
"H  c #8F614C",
"J  c #976047",
"K  c #93624F",
"L  c #9B634A",
"P  c #836051",
"I  c #806356",
"U  c #866657",
"Y  c #8A6758",
"T  c #8B675B",
"R  c #8F695B",
"E  c #8C6A5A",
"W  c #8C6A5D",
"Q  c #9D6850",
"!  c #9A6E5B",
"~  c #9C6F5D",
"^  c #A4634A",
"/  c #A76649",
"(  c #A7664A",
")  c #A5654C",
"_  c #A9674A",
"`  c #A3694F",
"'  c #AF6B4D",
"]  c #B16A4B",
"[  c #B26B4B",
"{  c #B86F4E",
"}  c #B96F4E",
"|  c #BF704D",
" . c #A66A50",
".. c #A76C52",
"X. c #A96A51",
"o. c #AA6C50",
"O. c #AA6C51",
"+. c #AC6D51",
"@. c #AD6D51",
"#. c #AC7157",
"$. c #AE7559",
"%. c #B37052",
"&. c #B47657",
"*. c #BE7454",
"=. c #B6795A",
"-. c #B77E5E",
";. c #866961",
":. c #846B62",
">. c #826A68",
",. c #916F62",
"<. c #85726C",
"1. c #927361",
"2. c #8D7E75",
"3. c #927973",
"4. c #A57566",
"5. c #B47861",
"6. c #B77A61",
"7. c #B57A63",
"8. c #BA7B61",
"9. c #BB7B61",
"0. c #BD7E64",
"q. c #B97F68",
"w. c #C1734F",
"e. c #C57954",
"r. c #C77C56",
"t. c #C87C56",
"y. c #C47D5B",
"u. c #BA8866",
"i. c #BD8865",
"p. c #BF886F",
"a. c #AF8375",
"s. c #B48A7D",
"d. c #B8917A",
"f. c #CE855D",
"g. c #CC8B62",
"h. c #C3876A",
"j. c #D28C61",
"k. c #C7926C",
"l. c #D39469",
"z. c #D89568",
"x. c #D99568",
"c. c #D7986F",
"v. c #DB986A",
"b. c #DF9E6F",
"n. c #C59572",
"m. c #CE9776",
"M. c #CC9B7C",
"N. c #CC9B7D",
"B. c #CE9F7E",
"V. c #DDA276",
"C. c #D4A07C",
"Z. c #D6A37F",
"A. c #E1A171",
"S. c #7A7A80",
"D. c #7D7C80",
"F. c #7F8187",
"G. c #908286",
"H. c #9A8887",
"J. c #92898C",
"K. c #908A8E",
"L. c #9D8888",
"P. c #9C8C8F",
"I. c #8A8A91",
"U. c #8A8992",
"Y. c #8E8C91",
"T. c #948E93",
"R. c #92909B",
"E. c #92909C",
"W. c #95929C",
"Q. c #99939C",
"!. c #9B969F",
"~. c #9C969D",
"^. c #A78E89",
"/. c #A08F8E",
"(. c #B2928A",
"). c #A89B97",
"_. c #A0989D",
"`. c #A69A9E",
"'. c #AD9D9F",
"]. c #B89B91",
"[. c #BA9E93",
"{. c #BEA89D",
"}. c #9797A3",
"|. c #9599A3",
" X c #9A9EA9",
".X c #AFA0A1",
"XX c #ABA1A6",
"oX c #ADA3A5",
"OX c #B3A6A6",
"+X c #B3AAAB",
"@X c #B5A9A8",
"#X c #B2AAAC",
"$X c #A2A5B2",
"%X c #A3A7B4",
"&X c #A8A8B3",
"*X c #ABABB4",
"=X c #ABABB5",
"-X c #A7ACBA",
";X c #CFA487",
":X c #D2A483",
">X c #D4A482",
",X c #C8A691",
"<X c #C0A79A",
"1X c None",
/* pixels */
"1X1X1X1X1X1X1X1X1X1X1X1X1X1X1X1X1X1X1X1X1X1X1X1X1X1X1X1X1X1X1X1X1X1X1X1X1X1X1X1X1X1X1X1X1X1X1X1X1X1X1X1X1X1X1X1X1X1X1X1X1X1X1X1X",
"1X1X1X1X1X1X1X1X1X1X1X1X1X1X1X1X1X1X1X1X1X1X1X1X1X1X1X1X1X1X1X1X1X1X1X1X1X1X1X1X1X1X1X1X1X1X1X1X1X1X1X1X1X1X1X1X1X1X1X1X1X1X1X1X",
"1X1X1X1X1X1X1X1X1X1X1X1X1X1X1X1X1X1X1X1X1X1X1X1X1X1X1X1X1X1X1X1X1X1X1X1X1X1X1X1X1X1X1X1X1X1X1X1X1X1X1X1X1X1X1X1X1X1X1X1X1X1X1X1X",
"1X1X1X1X1X1X1X1X1X1X1X1X1X1X1X1X1X1X1X1X1X1X1X1X1X1X1X1X1X1X1X1X1X1X1X1X1X1X1X1X1X1X1X1X1X1X1X1X1X1X1X1X1X1X1X1X1X1X1X1X1X1X1X1X",
"1X1X1X1X1X1X1X1X1X1X1X1X1X1X1X1X1X1X1X1X1X1X1X1X1X1X1X1X1X1X1X1X1X1X1X1X1X1X1X1X1X1X1X1X1X1X1X1X1X1X1X1X1X1X1X1X1X1X1X1X1X1X1X1X",
"1X1X1X1X1X1X1X1X1X1X1X1X1X1X1X1X1X1X1X1X1X1X1X1X1X1X1X1X1X1X1X1X1X1X1X1X1X1X1X1X1X1X1X1X1X1X1X1X1X1X1X1X1X1X1X1X1X1X1X1X1X1X1X1X",
"1X1X1X1X1X1X1X1X1X1X1X1X1X1X1X1X1X1X1X1X1X1X1X1X1X1X1X1X1X1X1X1X1X1X1X1X1X1X1X1X1X1X1X1X1X1X1X1X1X1X1X1X1X1X1X1X1X1X1X1X1X1X1X1X",
"1X1X1X1X1X1X1X1X1X1X1X1X1X1X1X1X1X1X1X1X1X1X1X1X1X1X1X1X1X1X1X1X1X1X1X1X1X1X1X1X1X1X1X1X1X1X1X1X1X1X1X1X1X1X1X1X1X1X1X1X1X1X1X1X",
"1X1X1X1X1X1X1X1X1X1X1X1X1X1X1X1X1X1X1X1X1X1X1X1X1X1X1X1X1X1X1X1X1X1X1X1X1X1X1X1X1X1X1X1X1X1X1X1X1X1X1X1X1X1X1X1X1X1X1X1X1X1X1X1X",
"1X1X1X1X1X1X1X1X1X1X1X1X1X1X1X1X1X1X1X1X1X1X1X1X1X1X1X1X1X1X1X1X1X1X1X1X1X1X1X1X1X1X1X1X1X1X1X1X1X1X1X1X1X1X1X1X1X1X1X1X1X1X1X1X",
"1X1X1X1X1X1X1X1X1X1X1X1X1X1X1X1X1X1X1X1X1X1X1X1X1X1X1X1X1X1X1X1X1X1X1X1X1X1X1X1X1X1X1X1X1X1X1X1X1X1X1X1X1X1X1X1X1X1X1X1X1X1X1X1X",
"1X1X1X1X1X1X1X1X1X1X1X1X1X1X1X1X1X1X1X1X1X1X1X1X1X1X1X1X1X1X1X1X1X1X1X1X1X1X1X1X1X1X1X1X1X1X1X1X1X1X1X1X1X1X1X1X1X1X1X1X1X1X1X1X",
"1X1X1X1X1X1X1X1X1X1X1X1X1X1X1X1X1X1X1X1X1X1X1X1X1X1X1X1X1X1X1X1X1X1X1X1X1X1X1X1X1X1X1X1X1X1X1X1X1X1X1X1X1X1X1X1X1X1X1X1X1X1X1X1X",
"1X1X1X1X1X1X1X1X1X1X1X1X1X1X1X1X1X1X1X1X1X1X1X1X1X1X1X1X1X1X1X1X1X1X1X1X1X1X1X1X1X1X1X1X1X1X1X1X1X1X1X1X1X1X1X1X1X1X1X1X1X1X1X1X",
"1X1X1X1X1X1X1X1X1X1X1X1X1X1X1X1X1X1X1X1X1X1X1X1X1X1X1X1X1X1X1X1X1X1X1X1X1X1X1X1X1X1X1X1X1X1X1X1X1X1X1X1X1X1X1X1X1X1X1X1X1X1X1X1X",
"1X1X1X1X1X1X1X1X1X1X1X1X1X1X1X1X1X1X1X1X1X1X1X1X1X1X1X1X1X1X1X1X1X1X1X1X1X1X1X1X1X1X1X1X1X1X1X1X1X1X1X1X1X1X1X1X1X1X1X1X1X1X1X1X",
"1X1X1X1X1X1X1X1X1X1X-X-X-X-X-X|.v s s s s s s s s s 1X1X1X1X1X1X1X1X-X-X-X-X-X|.v s s s s s s s s s 1X1X1X1X1X1X1X1X1X1X1X1X1X1X",
"1X1X1X1X1X1X1X1X1X1X-X-X-X%X XY.z u u u u u u u u i 1X1X1X1X1X1X1X1X-X-X-X%X XY.z y e 6 6 6 6 6 6 8 1X1X1X1X1X1X1X1X1X1X1X1X1X1X",
"1X1X1X1X1X1X1X1X-X-X-X-X-X XF.z ! ................O.| | | | | u.'.-X-X-X-X XF.z ! Q G > > > V > > V n m m m m m 1X1X1X1X1X1X1X1X",
"1X1X1X1X1X1X1X1X-X-X-X%X XY.z E &.t.t.t.t.t.t.t.r.r.r.t.t.y.0.s.XX-X-X%X XY.z U  ./ A m m m m m m m m m m m m m 1X1X1X1X1X1X1X1X",
"1X1X1X1X1X1X-X-X-X-X-X XF.z ! &.g.x.x.x.x.x.x.x.x.x.x.x.x.m.].XX&X-X-X XF.z ! ` L A M M m m m m m m m m m m m m m m 1X1X1X1X1X1X",
"1X1X1X1X1X1X*X-X-X%X XY.z E &.f.v.A.A.A.A.A.A.A.A.A.A.A.A.:X@X-X-X%X XY.z U ` / A n m m m m m m m m m m m m m m m m 1X1X1X1X1X1X",
"1X1X1X1XA.;X+X-X-X XF.z ! &.g.v.b.A.A.A.A.A.A.A.A.A.A.A.A.:X@X-X-X XF.z ! ` J A M m m m m m m m m m m m m m m m m m m m 1X1X1X1X",
"1X1X1X1XA.:X@X-X-X|.v u ..t.x.A.A.A.A.A.A.A.A.A.A.A.A.A.A.:X@X-X-X|.v u ..] J m m m m m m m m m m m m m m m m m m m m m 1X1X1X1X",
"1X1X1X1XA.:X@X-X-X|.v u ..t.x.A.A.A.A.A.A.A.A.A.A.A.A.A.A.:X@X-X-X|.v u ..] S m m m m m m m m m m m m m m m m m m m m m 1X1X1X1X",
"1X1X1X1XA.:X@X-X-X|.v u $.f.v.A.A.A.A.A.A.A.A.A.A.A.A.A.A.:X@X-X-X|.v u ..] S m m m m m m m m m m m m m m m m m m m m m 1X1X1X1X",
"1X1X1X1XA.:X@X-X-X|.v g u.v.b.A.A.A.A.A.A.A.A.A.A.A.A.A.A.:X@X-X-X|.v u  .] S m m m m m m m m m m m m m m m m m m m m m 1X1X1X1X",
"1X1X1X1X>X,X#X%X XY.<.1.k.A.A.A.A.A.A.A.A.A.A.A.A.A.A.V.Z.,X#X%X XY.z U ` / S N S J J J J J J J J J J J J J J J J J J S 1X1X1X1X",
"1X1XA.>X{.#X*X XF.z ! =.l.A.A.A.A.A.A.A.A.A.A.A.A.A.A.Z.<X#X=X XF.z ! ` L A N A / ] ] ] [ [ [ [ [ [ [ [ [ [ [ [ [ ] ] _ S m 1X1X",
"1X1XA.:X@X-X-X|.v u ..t.x.A.A.A.A.A.A.A.A.A.A.A.A.A.A.:X@X-X-X|.v u ..] J m m A _ ] ] ] ] ] ] ] ] ] ] ] ] ] ] ] ] ] ] / A m 1X1X",
"1X1XA.:X@X-X-X|.v u ..t.x.A.A.A.A.A.A.A.A.A.A.A.A.A.A.:X@X-X-X|.v u ..] S m m N S S D D D D D D D D D D D D S S J S S S N m 1X1X",
"1X1XA.:X@X-X-X|.v u ..y.x.A.A.A.A.A.A.A.A.A.A.A.A.A.A.:X@X-X-X|.v u O.] S m m m m m m m m m m m m m m m m m m m m m m m m m 1X1X",
"1X1Xb.;X@X-X-X|.v u ..r.x.A.A.A.A.A.A.A.A.A.A.A.A.A.b.:X@X-X-X|.v u ..] S m m m m m m m m m m m m m m m m m m m m m m m m m 1X1X",
"1X1Xz.:XOX-X-X|.v u ..e.j.z.z.c.C.:X:XB.n.k.l.x.x.l.l.:XOX-X-X|.v u ..] S m m m m m m m m m m m m m m m m m m m m m m m m m 1X1X",
"1X1Xe.h.OX&X-X|.v u ..w.e.r.e.h.[.@X@X).2.1.=.e.t.t.t.h.'.-X-X|.v u ..] S m m m m m m m m m m m m m m m m m m m m m m m m m 1X1X",
"1X1X^ 4.`.-X-X|.v t K ^ ^ X.5.s.XX-X-X XF.z !  .^ ^ / 4.`.-X-X|.v t K F b & & & & V T W P : * & & & & & & V T W P : * & & & 1X1X",
"1X1X+ f Q.-X-X|.v 4 $ + + w L.XX*X-X-X%X XY.z 0 % + + f Q.-X-X|.v 4 $ o X . . . . q G.J.k < # . . . . . . q G.J.k < # . . . 1X1X",
"1X1X- >.}.-X-X|.v 4 $ @ = >.~.%X}.E.R.}.%X|.v 4 $ @ = >.}.-X-X|.v 4 $ o X . . . . a W.}.v 4 # . . . . . . a W.|.v 4 # . . . 1X1X",
"1X1Xi.d.oX-X-X|.v t K O.-.d.oX}.c 1 1 c }.|.v t K X.-.d.oX-X-X|.v t K F b & & & & ;.~.|.v 5 - & & & & & & ;.~.|.v 5 - & & & 1X1X",
"1X1XA.:X@X-X-X|.v u ..t.x.:X@XE.1     1 E.|.v u O.t.x.:X@X-X-X|.v u O.] D m m m m 1.~.|.v 6 > m m m m m m ,._.}.v 6 > m m m 1X1X",
"1X1XA.:XOX-X-X|.v u ..r.x.:X@XE.1     2 E.}.v u ..t.x.:X@X-X-X|.v u ..] S m m m m ,._.}.v 6 > m m m m m m 1._.|.v 6 > m m m 1X1X",
"1X1Xz.M.OX-X-X|.v u ..e.j.m.].P.x 2 2 x U.Y.z Y @.e.j.N.OX-X-X|.v u ..] S m m m m ,._.|.v 6 > m m m m m m 1._.|.v 6 > m m m 1X1X",
"1X1Xt.p.OX-X-X|.v u ..w.e.y.0.a.P.E.E.Y.S.<.! O.} w.e.p..X-X-X|.v u ..] S m m m m ,._.|.v 6 , m m m m m m ,.~.|.v 6 > m m m 1X1X",
"1X1Xw.q.`.-X-X|.v u ..| | | | 9.(.'.'./.<.Y @.} | | | q.'.-X-X|.v u ..] S m m m m E H.T.D.j r , , , > > > :.K.I.j 9 V m m m 1X1X",
"1X1Xw.q.'.-X-X}.v u ..| | | | *.9.q.q.6.#.@.} } | | | q.'.-X-X|.v u ..] S m m m m C R 3.T.Y.j 6 6 e 5 e e d h k r V n m m m 1X1X",
"1X1X} q.'.-X-X|.v u ..w.e.t.t.r.t.r.r.t.t.t.t.t.t.r.t.p..X-X-X|.v u ..] S N A L D D D ~ ^./.<.u u u u u u u u r K J J J J J 1X1X",
"1X1X} 0.'.-X-X|.v u ..e.j.x.x.x.x.x.x.x.x.x.x.x.x.x.x.N.OX-X-X|.v u ..] S A / ] [ [ [ %.6.6.#. ... .....` O...' ' ] [ [ [ ] 1X1X",
"1X1Xw.q.'.-X-X|.v u ..e.j.x.z.z.z.x.x.x.x.x.x.x.z.z.x.N.OX-X-X|.v u ..] D S / ] [ ] ] ] ] ] ] ] ] ] ' ' ' ' ' ] ] ] ] ] ] ] 1X1X",
"1X1Xw.q.'.-X-X|.v u ..w.e.r.r.r.r.r.r.r.r.r.r.r.r.r.r.p..X-X-X|.v u ..] S N S S D D D D D D D D J S S S J S S D D D D D D D 1X1X",
"1X1Xw.q.'.-X-X|.v u ..| | | | | | | | | | | | | | | | q.'.-X-X|.v u ..] S m m m m m m m m m m m m m m m m m m m m m m m m m 1X1X",
"1X1Xw.8.'.-X-X|.v u X.| | | | | | | | | | | | | | | | q.'.-X-X|.v u X.] D m m m m m m m m m m m m m m m m m m m m m m m m m 1X1X",
"1X1X} q.'.-X-X|.v u ..| | | | | | | | | | | | | | | | q.'.-X-X|.v u X.] D m m m m m m m m m m m m m m m m m m m m m m m m m 1X1X",
"1X1X} 9.'.-X-X|.v u ..| | | | | | | | | | | | | | | | q.'.-X-X|.v u ..] D m m m m m m m m m m m m m m m m m m m m m m m m m 1X1X",
"1X1Xw.q.'.-X-X|.v u ..w.e.r.t.t.t.r.t.t.t.t.t.r.t.t.r.p..X-X-X|.v u ..] S m S D J J J J J J J J J J J J J J J J J J J J J J 1X1X",
"1X1Xw.q.'.-X-X|.v u ..e.j.x.x.x.x.x.x.x.x.x.x.x.x.x.x.N.OX-X-X|.v u ..] S S _ [ [ [ [ [ [ [ [ [ ] [ [ [ [ [ [ [ [ [ [ [ [ [ 1X1X",
"1X1Xw.q.'.-X-X}.v u ..e.j.z.z.x.z.z.z.z.z.x.z.x.x.z.z.N.OX-X-X|.v u ..] S A _ ] ] ] ] ] ] ] ] ] ] ] ] ] ] ] ] ] ] ] ] ] ] ] 1X1X",
"1X1X| q.'.-X-X|.v u ..w.e.r.r.r.r.r.r.r.r.r.r.r.r.r.r.p..X-X-X|.v u ..] J m S S D D D D D D D D D D D D D D D D D D D D D D 1X1X",
"1X1X| q.'.-X-X|.v u ..| | | | | | | | | | | | | | | | q.'.-X-X|.v u ..] S m m m m m m m m m m m m m m m m m m m m m m m m m 1X1X",
"1X1X| q.'.-X-X|.v u ..| | | | | | | | | | | | | | | | q.'.-X-X|.v u ..] S m m m m m m m m m m m m m m m m m m m m m m m m m 1X1X",
"1X1X| q.'.-X-X|.v u ..| | | | | | | | | | | | | | | | q.'.-X-X|.v u ..] S m m m m m m m m m m m m m m m m m m m m m m m m m 1X1X",
"1X1X| q.'.-X-X|.v u ..| | | | | | | | | | | | | | | | q.'.-X-X|.v u O.] D m m m m m m m m m m m m m m m m m m m m m m m m m 1X1X",
"1X1X| q.'.-X-X|.v u ..| | | | | | | | | | | | | | | | q.'.-X-X|.v u ..] D m m m m m m m m m m m m m m m m m m m m m m m m m 1X1X",
"1X1X1X1X1X1X1X1X1X1X1X1X1X1X1X1X1X1X1X1X1X1X1X1X1X1X1X1X1X1X1X1X1X1X1X1X1X1X1X1X1X1X1X1X1X1X1X1X1X1X1X1X1X1X1X1X1X1X1X1X1X1X1X1X",
"1X1X1X1X1X1X1X1X1X1X1X1X1X1X1X1X1X1X1X1X1X1X1X1X1X1X1X1X1X1X1X1X1X1X1X1X1X1X1X1X1X1X1X1X1X1X1X1X1X1X1X1X1X1X1X1X1X1X1X1X1X1X1X1X"
};
