/* XPM */
static char *ZG9vcm9wZW4_[] = {
/* columns rows colors chars-per-pixel */
"32 32 9 1 ",
"  c #83A448",
". c #8BAC50",
"X c #8895AF",
"o c #434F65",
"O c #A6B0C4",
"+ c #91AF55",
"@ c #6F7F9F",
"# c #83883C",
"$ c #412320",
/* pixels */
"                                ",
"                          .     ",
"                   .  .   .     ",
"                   .. .  ..     ",
"             XXXXXX .  . .      ",
"             XXXXXX .. . .      ",
"       XXXXXoXXXXXXoXXXXX       ",
"       XXXXXoOOOOOOoXXXXX +     ",
"oXXXXXoXXXXXo@@@@@@oXXXXXoXXXXXo",
"oXXXXXoOOOOOo@@@@@@oOOOOOoXXXXXo",
"oXXXXXo@@@@@o@@@@@@o@@@@@oXXXXXo",
"oOOOOOo@@@@@o@@@@@@o@@@@@oOOOOOo",
"o@@@@@o@@@@@        @@@@@o@@@@@o",
"o@@@@@               ###  @@@@@o",
"o@@@@@                    @@@@@o",
"oooooo             .      oooooo",
"oOOOOO        .. ..       OOOOOo",
"o@@@@@.      .. ..  .     @@@@@o",
"o@@@@@ .. .. .  .  .      @@@@@o",
"o@@@@@  .. ..     ..      @@@@@o",
"o@@@@@.  .  .     .       @@@@@o",
"oooooo..                  oooooo",
"oOOOOO .                  OOOOOo",
"o@@@@@                    @@@@@o",
"o@@@@@                 ++ @@@@@o",
"o@@@@@ .         +++  ++  @@@@@o",
"o@@@@@ .        +++#  +## @@@@@o",
"oooooo..         ##       oooooo",
"oOOOOO..                  OOOOOo",
"o@@@@@$$$$$$$$$$$$$$$$$$$$@@@@@o",
"o@@@@@$$$$$$$$$$$$$$$$$$$$@@@@@o",
"o@@@@@$$$$$$$$$$$$$$$$$$$$@@@@@o"
};
