/* XPM */
static char *Tm91dmVhdStwcm9qZXQ_[] = {
/* columns rows colors chars-per-pixel */
"64 64 250 2 ",
"   c #060608",
".  c #1C1111",
"X  c #1D1212",
"o  c #1F1313",
"O  c #1C1C1D",
"+  c #201313",
"@  c #201314",
"#  c #261E1F",
"$  c #2F1B1A",
"%  c #301B1A",
"&  c #301C1A",
"*  c #331D1C",
"=  c #202022",
"-  c #212122",
";  c #292020",
":  c #2B2B2C",
">  c #3C2422",
",  c #392F2F",
"<  c #303031",
"1  c #313132",
"2  c #353536",
"3  c #3C393A",
"4  c #3D3A3A",
"5  c #472623",
"6  c #472724",
"7  c #482724",
"8  c #452927",
"9  c #4B2825",
"0  c #4A2925",
"q  c #4D2A26",
"w  c #4D2A27",
"e  c #4A2E2C",
"r  c #502C28",
"t  c #512C28",
"y  c #502C29",
"u  c #532D29",
"i  c #532E2A",
"p  c #532E2B",
"a  c #552F2B",
"s  c #562F2B",
"d  c #572F2B",
"f  c #58302C",
"g  c #59302C",
"h  c #59302D",
"j  c #59312D",
"k  c #5A312C",
"l  c #5A312D",
"z  c #5B312D",
"x  c #5E332F",
"c  c #4E393E",
"v  c #483F3F",
"b  c #503331",
"n  c #5A3533",
"m  c #52383C",
"M  c #563B3E",
"N  c #60342F",
"B  c #633631",
"V  c #643631",
"C  c #673833",
"Z  c #643B37",
"A  c #693933",
"S  c #683834",
"D  c #693934",
"F  c #6B3A35",
"G  c #6C3B35",
"H  c #6D3B36",
"J  c #713D38",
"K  c #71423D",
"L  c #78413C",
"P  c #3F3F40",
"I  c #3F3F41",
"U  c #513C42",
"Y  c #5D3F42",
"T  c #404041",
"R  c #444446",
"E  c gray28",
"W  c #4A4A4B",
"Q  c #5A4146",
"!  c #5C4145",
"~  c #5E4449",
"^  c #5F4449",
"/  c #4F4F50",
"(  c #5A4A53",
")  c #5A4A54",
"_  c #545455",
"`  c #565656",
"'  c #5B5B5C",
"]  c #624143",
"[  c #614144",
"{  c #604347",
"}  c #654345",
"|  c #6C4A46",
" . c #694648",
".. c #6B494D",
"X. c #754E4A",
"o. c #754F4C",
"O. c #70514D",
"+. c #77514D",
"@. c #77514E",
"#. c #79504C",
"$. c #6D4C50",
"%. c #6E4C50",
"&. c #714F53",
"*. c #6F5558",
"=. c #765154",
"-. c #755254",
";. c #7B5552",
":. c #7B5652",
">. c #785557",
",. c #7D5754",
"<. c #7D5854",
"1. c #434F65",
"2. c #4F4F61",
"3. c #465269",
"4. c #49556B",
"5. c #515062",
"6. c #545263",
"7. c #545264",
"8. c #565364",
"9. c #525569",
"0. c #4B5870",
"q. c #4E5B73",
"w. c #4E5B74",
"e. c #515E76",
"r. c #605C6B",
"t. c #655C6D",
"y. c #735B60",
"u. c #546077",
"i. c #566177",
"p. c #5D6075",
"a. c #546178",
"s. c #566279",
"d. c #58647A",
"f. c #58647B",
"g. c #5A657B",
"h. c #5A667B",
"j. c #58647C",
"k. c #58657C",
"l. c #5A667C",
"z. c #5C677D",
"x. c #606061",
"c. c #6A6768",
"v. c #69696A",
"b. c #6E6E6F",
"n. c #626170",
"m. c #626171",
"M. c #616277",
"N. c #626378",
"B. c #66657A",
"V. c gray44",
"C. c #747474",
"Z. c #747475",
"A. c gray46",
"S. c #7E7E7F",
"D. c #824740",
"F. c #8A4B44",
"G. c #8B4C44",
"H. c #8F4E47",
"J. c #9A544C",
"K. c #875A5D",
"L. c #8F5F61",
"P. c #847877",
"I. c #8D7977",
"U. c #8A7E7D",
"Y. c #917B79",
"T. c #5C6A86",
"R. c #656980",
"E. c #686A81",
"W. c #696B82",
"Q. c #6A6B82",
"!. c #686D86",
"~. c #6E6E85",
"^. c #6F6E85",
"/. c #65718D",
"(. c #717086",
"). c #7F7A81",
"_. c #70738A",
"`. c #777389",
"'. c #7A748A",
"]. c #79778C",
"[. c #647390",
"{. c #647391",
"}. c #6E7C97",
"|. c #6F7F9F",
" X c #747D95",
".X c #77839C",
"XX c #77849D",
"oX c #7B869A",
"OX c #7B869B",
"+X c #7A87A0",
"@X c #7C88A0",
"#X c #7C89A0",
"$X c #7C89A1",
"%X c #7D8BA8",
"&X c #808080",
"*X c #838384",
"=X c #878084",
"-X c #848484",
";X c gray52",
":X c #85818F",
">X c #898989",
",X c #8E8E8E",
"<X c gray56",
"1X c #978A89",
"2X c #998E8D",
"3X c #9D908F",
"4X c #9D918F",
"5X c #888C93",
"6X c #8D8A9A",
"7X c #8F9298",
"8X c #8B909F",
"9X c #929292",
"0X c #929293",
"qX c #939393",
"wX c #939394",
"eX c gray58",
"rX c #989596",
"tX c gray60",
"yX c #9A9A9A",
"uX c gray62",
"iX c #9F9F9F",
"pX c #818BA1",
"aX c #838EA5",
"sX c #838FA5",
"dX c #8390A9",
"fX c #8893A8",
"gX c #8895AF",
"hX c #8D98AC",
"jX c #959EAF",
"kX c #909CB4",
"lX c #98A4BB",
"zX c #9FA9BF",
"xX c gray64",
"cX c #A7A7A7",
"vX c gray66",
"bX c gray67",
"nX c gray68",
"mX c #B1B1B2",
"MX c #B2B2B2",
"NX c #B7B7B7",
"BX c #BCBCBC",
"VX c #C1C1C1",
"CX c gray76",
"ZX c #C6C6C6",
"AX c gray80",
"SX c gray82",
"DX c gray84",
"FX c gray86",
"GX c gray92",
"HX c None",
/* pixels */
"HXHXHXHXHXHXHXHXHXHXHXHXHXHXHXHXHXHXHXHXHXHXHXHXHXHXHXHXHXHXHXHXHXHXHXHXHXHXHXHXHXHXHXHXHXHXHXHXHXHXHXHXHXHXHXHXHXHXHXHXHXHXHXHX",
"HXHXHXHXHXHXHXHXHXHXHXHXHXHXHXHXHXHXHXHXHXHXHXHXHXHXHXHXHXHXHXHXHXHXHXHXHXHXHXHXHXHXHXHXHXHXHXHXHXHXHXHXHXHXHXHXHXHXHXHXHXHXHXHX",
"HXHXHXHXHXHXHXHXHXHXHXHXHXHXHXHXHXHXHXHXHXHXHXHXHXHXHXHXHXHXHXHXHXHXHXHXHXHXHXHXHXHXHXHXHXHXHXHXHXHXHXHXHXHXHXHXHXHXHXHXHXHXHXHX",
"HXHXHXHXHXHXHXHXHXHXHXHXHXHXHXHXHXHXHXHXHXHXHXHXHXHXHXHXHXHXHXHXHXHXHXHXHXHXHXHXHXHXHXHXHXHXHXHXHXHXHXHXHXHXHXHXHXHXHXHXHXHXHXHX",
"HXHXHXHXHXHXHXHXHXHXHXHXHXHXHXHXHXHXHXHXHXHXHXHXHXHXHXHXHXHXHXHXHXHXHXHXHXHXHXHXHXHXHXHXHXHXHXHXHXHXHXHXHXHXHXHXHXHXHXHXHXHXHXHX",
"HXHXHXHXHXHXHXHXHXHXHXHXHXHXHXHXHXHXHXHXHXHXHXHXHXHXHXHXHXHXHXHXHXHXHXHXHXHXHXHXHXHXHXHXHXHXHXHXHXHXHXHXHXHXHXHXHXHXHXHXHXHXHXHX",
"HXHXHXHXHXHXHXHXHXHXHXHXHXHXHXHXHXHXHXHXHXHXHXHXHXHXHXHXHXHXHXHXHXHXHXHXHXHXHXHXHXHXHXHXHXHXHXHXHXHXHXHXHXHXHXHXHXHXHXHXHXHXHXHX",
"HXHXHXHXHXHXHXHXHXHXHXHXHXHXHXHXHXHXHXHXHXHXHXHXHXHXHXHXHXHXHXHXHXHXHXHXHXHXHXHXHXHXHXHXHXHXHXHXHXHXHXHXHXHXHXHXHXHXHXHXHXHXHXHX",
"HXHXHXHXHXHXHXHXHXHXHXHXHXHXHXHXHXHXHXHXHXHXHXHXHXHXgXgXgXgXgXgXgXgXgXgXgXgXHXHXHXHXHXHXHXHXHXHXHXHXHXHXHXHXHXHXHXHXHXHXHXHXHXHX",
"HXHXHXHXHXHXHXHXHXHXHXHXHXHXHXHXHXHXHXHXHXHXHXHXHXHXgXgXgXgXgXgXgXgXgXgXgXgXHXHXHXHXHXHXHXHXHXHXHXHXHXHXHXHXHXHXHXHXHXHXHXHXHXHX",
"HXHXHXHXHXHXHXHXHXHXHXHXHXHXHXHXHXHXHXHXHXHXHXHXHXHXgXgXgXgXgXgXgXgXgXgXgXgXHXHXHXHXHXHXHXHXHXHXHXHXHXHXHXHXHXHXHXHXHXHXHXHXHXHX",
"HXHXHXHXHXHXHXHXHXHXHXHXHXHXHXHXHXHXHXHXHXHXHXHXHXHXdXgXgXgXgXgXgXgXgXgXgXdXHXHXHXHXHXHXHXHXHXHXHXHXHXHXHXHXHXHXHXHXHXHXHXHXHXHX",
"HXHXHXHXHXHXHXHXHXHXHXHXHXHXgXgXgXgXgXgXgXgXgX.Xa.l.+XgXgXgXgXgXgXgXgXgXgX@Xj.a.XXgXgXgXgXgXgXgXgXgXHXHXHXHXHXHXHXHXHXHXHXHXHXHX",
"HXHXHXHXHXHXHXHXHXHXHXHXHXHXgXgXgXgXgXgXgXgXgX.Xe.d.#XkXkXkXkXkXkXkXkXkXkX#Xd.a.XXgXgXgXgXgXgXgXgXgXHXHXHXHXHXHXHXHXHXHXHXHXHXHX",
"HXHXHXHXHXHXHXHXHXHXHXHXHXHXgXgXgXgXgXgXgXgXgX.Xa.d.fXzXzXzXzXzXzXzXzXzXzXfXh.a.XXgXgXgXgXgXgXgXgXgXHXHXHXHXHXHXHXHXHXHXHXHXHXHX",
"HXHXHXHXHXHXHXHXHXHXHXHXHXHXdXgXgXgXgXgXgXgXgXXXe.d.sXlXlXlXlXlXlXlXlXlXlXaXd.a.XXgXgXgXgXgXgXgXgXdXHXHXHXHXHXHXHXHXHXHXHXHXHXHX",
"1.a.XXgXgXgXgXgXgXgXgX.Xe.l.#XgXgXgXgXgXgXgXgXXXa.e.}.%X%X%X%X%X%X%X%X%X%X}.u.a..XgXgXgXgXgXgXgXgX+Xl.u.XXgXgXgXgXgXgXgXgX.Xa.1.",
"1.a.XXgXgXgXgXgXgXgXgX.Xa.a.OXkXkXkXkXkXkXkXkX#Xa.w.{.|.|.|.|.|.|.|.|.|..X{.w.a.#XkXkXkXkXkXkXkXkX#Xa.u.XXgXgXgXgXgXgXgXgX.Xe.1.",
"1.a.XXgXgXgXgXgXgXgXgX.Xe.z.fXzXzXzXzXzXzXzXzXfXl.w.{.|.|.|.|.|.|.|.|.|.|.{.q.d.fXzXzXzXzXzXzXzXzXfXl.a.XXgXgXgXgXgXgXgXgX.Xa.1.",
"1.a.XXgXgXgXgXgXgXgXgX.Xa.d.aXlXlXlXlXlXlXlXlXaXj.w.{.|.|.|.|.|.|.|.|.|.|.{.q.d.sXlXlXlXlXlXlXlXlXaXd.a.XXgXgXgXgXgXgXgXgX.Xu.1.",
"1.a.XXgXgXgXgXgXgXgXgX.Xe.e.}.%X%X%X%X%X%X%X%X}.e.w.{.|.|.|.|.|.|.|.|.|.|.{.q.e.}.%X%X%X%X%X%X%X%X}.e.u..XgXgXgXgXgXgXgXgX.Xe.1.",
"1.a.#XkXkXkXkXkXkXkXkX#Xd.w.{.|.|.|.|.|.+X|.|.{.w.w.{.|.|.|.|.|.|.|.|.|.|.{.q.w.{.|.|.|.|.|.|.|.|.{.e.a.#XkXkXkXkXkXkXkXkX#Xd.1.",
"1.l.fXzXzXzXzXzXzXzXzXfXd.e.{.|.|.|.|.|.|.|.|.{.w.w.{.|.|.|..X|.|.|.|.|.|.{.w.w.{.|.|.|.|.|.|.|.|.{.q.l.fXzXzXzXzXzXzXzXzXfXh.1.",
"1.d.sXlXlXlXlXlXlXlXlXsXd.q.{.|.|.|.|.|.|.|.|./.9.2.p.R.R.R.Q.R.Q.!.R.R.R.p.2.9./.|.|.|.|.|.|.|.|.{.q.d.sXlXlXlXlXlXlXlXlXaXd.1.",
"1.e.}.%X%X%X%X%X%X%X%X}.e.w.{.|.|.|.|.|.+X|.|.!.) m U U ! ^ ^ ^ ^ ^ ! ! U c m ( !.|.|.|.|.|.|.|.|.{.q.e.}.%X%X%X%X%X%X%X%X Xe.1.",
"1.w.{..X|.|.|.|.|.|.|./.9.5.M.Q.R.R.R.R.R.R.R.t.Y y 5 5 u g g g g d g p 6 5 p Y t.Q.Q.R.R.R.Q.R.Q.M.5.9./.|.|.|.|.|.|.|.|.{.w.1.",
"1.w.{.|.|.|.|.|.|.|.|.!.( M ! ! ~ Y U U Y ^ ^ Y n u 5 5 t g g z g g g p 5 5 p n Y ^ ^ ! U U Y ^ ^ ! U ( !.|.|.|.|.|.|.|.|./.q.1.",
"1.w.{.|.|.|.|.|.|.|.|.Q.^ g z g d u 6 6 g x x x n g w 7 g x N n x x x g q q u x x N n u 7 5 p g g g z ~ R.|.|.|.|.|.|.|.|.{.q.1.",
"1.w.{.+X|.|.|.|.|.|.|.Q.~ f g g h p 5 9 x S S S S V z z N A S S S S A B x f N A S S S B 9 5 u g g g g ^ Q.XX|.|.|.|.|..X|.{.q.1.",
"1.0.T.{.{.{.{.{.{.{.{.N.{ x x n n d 9 u V H H H H S N N A H H H H H H A N N S H H H H V u q g x x x B ! N.{.{.{.{.{.{.{.{.T.0.1.",
"1.3.0.w.0.w.w.w.q.q.q.6.] S S S S V z z S H H H H S N N S H H H H H H A N N S H H H H V g z V S S S V { 8.u.w.w.0.w.w.q.q.0.3.1.",
"1.4.e.l.l.l.l.l.z.z.z.n.*.X.+.+.;.X.Z N S H H H H S N z g u u u p p p t 0 p V H H H H A N N A H H H H  .8.z.z.z.z.l.z.z.l.u.4.1.",
"1.u.OXhXhXhXhXhXhXhXhX8XU.P.P.I.1XI.| N S H H H H C N 0 $ + + o + + + o o $ z S H H H S B N A H H H H -.:XhXhXhXhXhXhXhXhXOXe.1.",
"1.d.sXlXlXlXlXlXlXlXlXkXwX<XqXtXcX3XO.N S H H H H B p > # = : < < 2 P R R v b z S H H S N N G H H H H >.6XlXlXlXlXlXlXlXlXsXd.1.",
"1.w.}.%X%X%X%X%X%X%X%X$X5XqXjXcXbX2XO.N S H H H H g * # 4 ` Z.*X*X9XMXVXVXrXR * z S H A N N S H H H H -.].%X%X%X%X%X%X%X%X}.e.1.",
"1.w.{.|.|.|.|.|.|..XXX X).U.1X3X3XI.| N G H H A z 8 ; < ' A.S.*X*X9XMXZXSXMXc.v b z A A N N S H H H H ..^.|.|.|.|.|.|.|.|.{.e.1.",
"1.w.{.XX|.|.|.|.|.|.|._.y.+.;.,.;.+.Z x S H H z * ; 4 ' -XS.W < < 2 I _ A.eXMXrXv * z A N N S H H H H $.(..X|.|.|.|.|.|.|.{.q.1.",
"1.w.{.|.|.|.|.|.|.|.|.!.%.H H H G S N N S H H u o O R V.tX-X<         O E ;XDXVXR @ a Z N x G H H H H $.!.|.|.|.|.|.|.|.|./.q.1.",
"1.w.{.|.|.|.|.|.|.|.|.^.%.H H H H A N N A H H p + O E V.tX-X<         O E -XDXVXR o a A N N C H H H H $.^.|.|.|.|.|.|.|.|.{.q.1.",
"1.w.{.|.|.|.|.|.|.|.|.^.%.H H H H A N N A A f 8 ; < ' *XuX9XW < < < < I x.2XAXVXb.v b s f N G K #.#.K $.^.|.|.|.|.|.|.|.|.{.q.1.",
"1.w.{.|.|.|.|.|.XX|.|.^.$.F H H H S N N A z * ; 4 ' ;XiXvXxX,X-X-X-X-X>XqXxXNXCXCXeXv & q N A #.Y.Y.#.$.!.|.|..X|.|..X|.|.{.0.1.",
"1.0.T.{.{.{.{.{./.{.{.N.$.F H H H S N N S a o O E V.tXnXnXnXnXnXnXnXnXnXnXnXnXCXGXVXR . 5 N A <.3XrX,...B.{.{.[.{./.{.{.{.T.0.1.",
"1.3.0.w.q.q.q.q.e.q.e.8.{ H H H H G N N C p o O E V.tXnXnXnXnXnXbXbXnXnXnXnXnXCXGXVXR . 0 x D <.3X3X,.} 7.q.w.q.q.q.q.q.w.0.3.1.",
"1.4.u.l.z.z.z.l.z.z.z.9. .H H H H S N N A a + O E V.tXnXnXnXnXxX,XU.oX,XxXnXnXCXGXCXR . 8 x D <.3X3X,. .r.l.z.l.z.z.z.z.z.u.4.1.",
"1.u.OXgXhXhXhXhXhXhXhX:X-.H H H H A N N A a o O E V.tXnXnXnXnX,X/ < < / ,XbXnXCXGXVXR . 5 x D <.3X3XK.O.:XhXhXhXhXhXhXgXhXOXu.1.",
"1.d.sXlXlXlXlXlXlXlXlX6X>.H H H H A N N S a o O E V.tXnXnXnXnX*X<     < -XnXnXBXFXMXP . 5 N A <.3X3X:.;.6XlXlXlXlXlXlXlXlXsXd.1.",
"1.w.}.%X%X%X%X%X%X%X%X].-.S H H H S N N A p o O E V.tXnXnXnXnX*X<     < -XnXnXMXBXqX2 . 5 N A <.3XrX,.&.].%X%X%X%X%X%X%X%X}.e.1.",
"1.w.{.|.|.|.|..X|.|..X^.$.H H H H S N N A p + O R V.tXnXnXnXnX*X<     < -XbXnXnXbX-X< . 5 N G <.3X2X,.%.^.|.|.|.|.|.|.|..X[.q.1.",
"1.w.{..X|.|.|.|.|.|.|.^.$.H H H H G N N A a + O E V.tXnXnXnXnX*X<     < *XnXnXnXnX*X< . 0 N S <.3X3XK.| ^.|.|.|.|.|.|.|.|.{.q.1.",
"1.w.{.|.|.|.|.|.|.|.|.^.$.H H H H S N N C p o O E V.tXnXnXnXnX,X/ < < / ,XnXnXnXnX-X< . 0 N S #.Y.Y.#...^.|.|.|.|.|.|.|.|.{.q.1.",
"1.w.{.|.|.|.|.|.|.|.|.!.$.H H H H S N N A a o O E V.tXnXnXnXnXxX,X*X*X,XxXnXnXnXnX*X< . 5 N S K #.#.K o.^.|.|.|.|.|.|.|.XX/.q.1.",
"1.w.{.|.|.|.|.|.|.|.|.!.$.H H H H A N N S a o O E V.tXnXnXnXnXnXnXnXnXnXnXnXnXnXnX*X< o 5 N A H H H S %.^.|.|.|.|.|.|.|.|.{.q.1.",
"1.w.[.XX|.|..X|.|.|.XX^.$.H H H H G N N C a + O E V.tXnXnXnXnXnXnXnXnXnXnXnXnXnXnX*X< . 8 N A H H H H $.(.|.|.|.|.|.|..X|.{.w.1.",
"1.0.T.[.{.{.[.[.{.{.{.B...H H H H S N N S z * ; 4 ` C.-X*X*X*X*X*X*X*X*X*X-X*X*X*Xc., $ q N A H H H H ..B.{./.{.{.{.{.[.{.T.0.1.",
"1.3.0.w.0.0.w.q.w.w.w.8.} H H H S A N N S C z 8 ; = : < < < < < < < < < < < < < < , e p z x G H H H H } 7.e.q.q.0.w.w.w.w.0.3.1.",
"1.4.u.z.T.j.z.z.l.j.l.n.*.o.o.+.<.O.D x G H H z * o o . o o o @ @ o o o . o o o o * z A N N A H H H H  .r.z.z.z.z.l.z.z.l.u.3.1.",
"1.e.OXhXhXhXhXhXhXhXhX8X=XP.P.U.1XI.| N A H H A z p 0 0 w p p a p p a p 0 0 p p u z S S N N S H H H H -.:XhXgXgXhXhXgXgXhXOXu.1.",
"1.d.sXlXlXlXlXlXlXlXlXkXwX,XqXtXcX2XO.N S H H H G S N N S H H H H H H S x N S S H H H S N N S H H H H >.6XlXlXlXlXlXlXlXlXsXd.1.",
"1.e.}.%X%X%X%X%X%X%X%XpX5X9XiXcXbX2XO.N S H H H H A N N G H H H H H H S N N S H H H H S N N S H H H H &.].%X%X%X%X%X%X%X%X}.e.1.",
"1.e.{.|.|.|.|.|.|.|.|. XP.U.1XrX3XI.| N S H H H H S N N S H H H H H H S N N S H H H H A N N G H H H H %.!.XX|.|.XX|.|.|.XX/.q.1.",
"1.q.{.|.|.|.|.|.|.|.|._.y.+.>.,.<.+.Z x A H H H H S N N G H H H H H H S N N A H H H H H B B S J H H H %.~.XX|.|.|.|.|.|.|.{.w.1.",
"1.q.{.|.|.|.|.|.|.|.|.(.-.L L L L H B B J L L L L J B B H L L L L L L H C B J L L L L H B V J J L L J -.~.|.|.|.|.|.|.|.|.{.0.1.",
"1.w.{.|.|.|.|.|.|.|.|.'.K.H.H.H.H.D.A A D.H.H.H.H.D.A A D.H.H.H.H.H.H.D.A A D.H.H.H.H.D.S S D.H.H.H.H.L.`.|.|.|.|.|.|.|..X[.w.1.",
"1.w.{.|.|.|.|.|.|.|.|.'.L.J.J.J.J.G.G G G.J.J.J.J.F.G H H.J.J.J.J.J.J.F.G H G.J.J.J.J.F.S H F.J.J.J.J.L._.|.|.|.|.|.|.|.|.[.w.1."
};
