/* XPM */
static char *ZGVtb25zdHJhdGlvbg__[] = {
/* columns rows colors chars-per-pixel */
"32 32 4 1 ",
"  c #83A448",
". c #8BAC50",
"X c #91AF55",
"o c #83883C",
/* pixels */
"                                ",
"                          .     ",
"                   .  .   .     ",
"                   .. .  ..     ",
"                    .  . .      ",
"                    .. . .      ",
"                     . .        ",
"                     .    X     ",
"     XX                   XX    ",
"      XX   XXX            XX    ",
"     ooX  XXX            ooX    ",
"          Xooo        XXX       ",
"                    XXXXo       ",
"                     ooo        ",
"                                ",
"                   .            ",
"              .. ..             ",
"      .      .. ..  .           ",
"       .. .. .  .  .            ",
"     .  .. ..     ..            ",
"      .  .  .     .             ",
"      ..                        ",
"       .                        ",
"                                ",
"   .                   XX       ",
"   .   .         XXX  XX        ",
" . .   .        XXXo  Xoo       ",
" . .. ..         oo             ",
" .. . ..                        ",
"  . . .                         ",
"  .   .                         ",
"                                "
};
