/* XPM */
static char *bW9i[] = {
/* columns rows colors chars-per-pixel */
"32 32 16 1 ",
"  c #83A448",
". c #8BAC50",
"X c #91AF55",
"o c #83883C",
"O c #93CEFC",
"+ c #7DADD3",
"@ c #668DAB",
"# c #566883",
"$ c #48596F",
"% c #5A6F8B",
"& c #FEFFE7",
"* c #C49437",
"= c #ECF54D",
"- c #617F9C",
"; c #A4E2C2",
": c #6C98B9",
/* pixels */
"                                ",
"                          .     ",
"                   .  .   .     ",
"                   .. .  ..     ",
"                    .  . .      ",
"                    .. . .      ",
"                     . .        ",
"                     .    X     ",
"     XX                   XX    ",
"      XX   XXX            XX    ",
"     ooX  XXX            ooX    ",
"          OOOOO++     XXX       ",
"         OOOO+++++  XXXXo       ",
"        O@@###@@@@@  ooo        ",
"        +@####$%@@@@            ",
"        @@#   $%@@@@@           ",
"        @#   $$%%@@@@@          ",
"      . && $$$$%%@@@@@          ",
"       &**$$$@@%%@@@@@@         ",
"     . =*%%$-@@@%@@@@@@@        ",
"      . %%%%--@@@@@@@@@@        ",
"      ..%%%%--@@@@@@@@@@@       ",
"       .$%%%--@@@@@@@@@@@       ",
"        $$%%---@@@@@@@@@--      ",
"   .    $$$%%--;@@::@@@;--      ",
"   .   .$$$$%%---$$$$$----      ",
" . .   . $$$%%---@+++@----      ",
" . .. ..   $$%%----------       ",
" .. . ..                        ",
"  . . .                         ",
"  .   .                         ",
"                                "
};
