/* XPM */
static char *_5878df732f44d4becae91aed84fc6f6I2nKKl22CvUtGaTR[] = {
/* columns rows colors chars-per-pixel */
"32 32 13 1 ",
"  c None",
". c #48596F",
"X c #C49437",
"o c #ECF54D",
"O c #566883",
"+ c #5A6F8B",
"@ c #617F9C",
"# c #668DAB",
"$ c #6C98B9",
"% c #7DADD3",
"& c #A4E2C2",
"* c #93CEFC",
"= c #FEFFE7",
/* pixels */
"                                ",
"                                ",
"                                ",
"                                ",
"                                ",
"                                ",
"                                ",
"                                ",
"                                ",
"                                ",
"                                ",
"          *****%%               ",
"         ****%%%%%              ",
"        *##OOO#####             ",
"        %#OOOO.+####            ",
"        ##O   .+#####           ",
"        #O   ..++#####          ",
"        == ....++#####          ",
"       =XX...##++######         ",
"       oX++.@###+#######        ",
"        ++++@@##########        ",
"        ++++@@###########       ",
"        .+++@@###########       ",
"        ..++@@@#########@@      ",
"        ...++@@&##$$###&@@      ",
"        ....++@@@.....@@@@      ",
"         ...++@@@#%%%#@@@@      ",
"           ..++@@@@@@@@@@       ",
"                                ",
"                                ",
"                                ",
"                                "
};
