/* XPM */
static char *Tm91dmVhdStwcm9qZXQ_[] = {
/* columns rows colors chars-per-pixel */
"64 64 153 2 ",
"   c #1F273A",
".  c #1F283B",
"X  c #212A3D",
"o  c #242D42",
"O  c #273045",
"+  c #2A3347",
"@  c #2C364C",
"#  c #2E384F",
"$  c #30394E",
"%  c #2D3750",
"&  c #2F3951",
"*  c #303751",
"=  c #313C54",
"-  c #353F59",
";  c #364057",
":  c #394255",
">  c #36415A",
",  c #3A445C",
"<  c #3F485D",
"1  c #3A4662",
"2  c #3D4A66",
"3  c #3E4C68",
"4  c #414E65",
"5  c #424E69",
"6  c #415066",
"7  c #45546B",
"8  c #48566E",
"9  c #48586F",
"0  c #495770",
"q  c #4B5A73",
"w  c #4F5E7A",
"e  c #525E76",
"r  c #505F7A",
"t  c #54647D",
"y  c #566781",
"u  c #576882",
"i  c #5B6C85",
"p  c #5E6F89",
"a  c #5E708A",
"s  c #60728D",
"d  c #637492",
"f  c #677893",
"g  c #6A7B96",
"h  c #647599",
"j  c #667999",
"k  c #6A7C9C",
"l  c #707F99",
"z  c #6677A1",
"x  c #6779A2",
"c  c #697BA5",
"v  c #6D7FAB",
"b  c #6B7EA9",
"n  c #6F809B",
"m  c #72829E",
"M  c #6E81AD",
"N  c #7083AE",
"B  c #7183AE",
"V  c #7285B3",
"C  c #7386B2",
"Z  c #7487B1",
"A  c #7487B7",
"S  c #7386B2",
"D  c #778AB7",
"F  c #7589B5",
"G  c #788AB7",
"H  c #798BB6",
"J  c #778BB9",
"K  c #778AB9",
"L  c #788DBB",
"P  c #788DBC",
"I  c #7B8FBD",
"U  c #7B8EBF",
"Y  c #7C8FBE",
"T  c #7A8DBD",
"R  c #7D90BE",
"E  c #7B8EC0",
"W  c #7A8EC0",
"Q  c #7C90C3",
"!  c #7D91C3",
"~  c #8193BD",
"^  c #9DA5BB",
"/  c #9CA6BF",
"(  c #8194C2",
")  c #8496C1",
"_  c #8194C5",
"`  c #8194C4",
"'  c #8699C7",
"]  c #889AC7",
"[  c #889AC7",
"{  c #8196C8",
"}  c #869ACB",
"|  c #899CCA",
" . c #879CD2",
".. c #889ED3",
"X. c #899ED3",
"o. c #8EA2CF",
"O. c #9FA9C2",
"+. c #8BA1D6",
"@. c #8EA5DD",
"#. c #8DA3DA",
"$. c #90A4D5",
"%. c #91A7DE",
"&. c #91A6DD",
"*. c #94A9DE",
"=. c #99ADDF",
"-. c #A6AFC8",
";. c #A9B1CA",
":. c #ABB5CE",
">. c #AFB8CF",
",. c #ABB5D0",
"<. c #AEB9D4",
"1. c #B2BCD4",
"2. c #B4BED9",
"3. c #90A7E0",
"4. c #96ABE1",
"5. c #95ABE0",
"6. c #9AAFE2",
"7. c #9AAFE3",
"8. c #9AADE0",
"9. c #B7C0D7",
"0. c #B6C1DC",
"q. c #BCC6DF",
"w. c #BAC3DC",
"e. c #BDC8DF",
"r. c #B7C3E2",
"t. c #BCC6E2",
"y. c #BFC9E4",
"u. c #BFCAE8",
"i. c #C2CBE2",
"p. c #C2CCE5",
"a. c #C2CDE9",
"s. c #C2CDEB",
"d. c #C6D1EC",
"f. c #CAD3EA",
"g. c #C9D3EC",
"h. c #C9D3EE",
"j. c #C9D3EF",
"k. c #CAD3ED",
"l. c #CCD7F3",
"z. c #CBD6F2",
"x. c #CFD8F2",
"c. c #D0D9F3",
"v. c #D1DBF3",
"b. c #D1DBF4",
"n. c #D2DBF4",
"m. c #D6DEF5",
"M. c #D6DFF5",
"N. c #D7DFF5",
"B. c #D5DFF7",
"V. c #D6DEF6",
"C. c #D7DFF6",
"Z. c #D6DEF7",
"A. c #D4DDF5",
/* pixels */
"p p p p p 6 X . B.D p p p a p p R p p a p i 7 & . O a a p i 0 a a 0 i a i a a a p p p i 9 i p p 7 7 7 & O A g.p p s K J a a p p ",
"p p i i 7 4 X X H i p p p i p p a a p i 8 7 2 . # 9 i i p p i i a a a S a i p 9 i a p i 7 i i 7 7 6 2 # O b a a i p a i a a i p ",
"i i 8 i 7 6 * . p 0 a a i q i a i i i i 8 7 1 . . 7 0 p i i 8 0 i i a i 9 u p i 7 i a i 7 i 9 7 7 3 2 . X 7 i a 7 p i 0 i i 8 a ",
"i 8 7 7 7 * X X 7 8 i i 8 9 i i 8 i 9 8 7 2 1 , & 6 7 9 8 7 7 7 8 8 7 9 7 8 i 8 7 u i 9 7 9 7 7 3 2 2 o X 6 7 i 8 i 0 i i 8 8 i ",
"8 7 7 4 * O , o = 7 7 8 8 7 7 7 6 7 7 6 2 = 8 i.& ; 7 7 4 2 2 3 3 3 3 7 7 7 u 7 7 7 7 3 3 3 3 3 7 = , $ , = 6 8 7 9 7 8 8 7 7 9 ",
"& & # X X 4 ;.c X # * 6 4 4 6 & X & # + % 1 v a & > = = % o = 2 2 & 1 3 3 7 9 7 2 3 1 6 2 2 = % # 2 O.= ^ , 2 , 1 1 1 1 1 1 1 3 ",
". @ X X X * , - & . X # X o * X   . O y o 1 b = & t & & X X & * & o & = 3 7 7 7 3 3 = * = * o   X p Z O + # o X . . X X X . X & ",
"& 7 N.v.*.8.v.B.R & # X = 6 = 7   - i & & & = * & & 7 g., X X 7 B.' q & % & & 7 3 o X   . X       & & & X   X   . . . . ; p J & ",
"&.z.E P _ s._ E B.8.B.v.8.t.w B.7 = @   O ..8.B.N.l.%.@.Q ' v.g.P P h A O % M & & X . . % & & . & ` z.B.B.N.N.& & J w 6 & . X   ",
"p ! &.K E E #.@.E J Q ..y 1.H w ! > X +  .r.` Y E P K Q #.Q K J W d w q P 1 t . & > A u.*.u.h.E 8.E E E ! ! t.A P y.f 7 o . @ z.",
"p E #.j K E E P E d P J d p a L @.Z X > H s ~ P E K d Q +.D a d T R J d A 2 & & *.#.' W E E J Q k.Y E E @.@.j 0 P p i 7 $ X > &.",
"p j X.s d E +.s P a a d C s a s P 9.X , 0.B 1.s P A d K d s a d P h a i 9 M @ & z.o.0.Q Q P j #.d K j P P P P K s 9 8 7 * X 1.P ",
"p a d p p j K p s s s Z d d K p 9 w.X + | d d p a a a a a B s a d a a i 8 8 O & _ J j d X.j A E s f s Z s a D a a i 9 6 X # 9.a ",
"p S p p s B d d d ( i s p s S p 7 >.* = A d B p j a a a d s a d A a i 9 7 7 + & R j a a j a s d s 9.g s p p a a A i 9 6 O ; s n ",
"i s p p p s p P P p 9 p a i 0 a 7 q 2 O S s s p #.a a a Z s p a a a a 8 7 7 7 & R d i a D d p K i f s i a a a a a 9 8 7 ; t i x.",
"s p p p p p p p E p i s i i 7 s 7 7 6 > A s p p p p p a a p p a a q u 8 7 2 o & 7 i a a p 9 i p s L s s i 8 i i a 7 6 X X i 9 p ",
"i 0 i a a i 9 p p p i 0 i 8 7 7 7 7 4 & = i p p p i 9 p p i q i 7 7 u 8 7 5 o % 7 7 i p p a a 7 s s s Z q p p p 7 7 7 . & 7 7 p ",
"i i 8 i i t 7 7 i y 7 8 7 7 7 7 3 2 2 @ o 8 i p a 9 p p i 0 t i i i 8 7 3 3 o X 7 7 7 7 7 u i 7 7 6 7 i i i 7 7 7 7 3 X X 7 7 i ",
"7 7 7 7 7 7 7 7 7 7 7 8 7 7 7 7 2 3 2 X : 7 8 i u 8 i i i 7 7 7 7 7 4 3 3 4 o O # 6 7 7 7 7 7 7 7 7 7 7 7 7 7 7 6 7 ; , O < 2 7 ",
"6 7 6 6 6 7 7 7 7 7 3 5 3 2 2 2 2 2 - 2 1.0 7 7 7 7 7 7 7 7 7 6 2 2 3 2 5 = o d = = 2 7 7 7 7 7 7 3 2 7 7 7 7 7 7 2 > M ; . @ 7 ",
"= , ; o o 6 2 2 2 5 2 3 2 2 2 7 4 - i v 2 + 6 7 7 7 7 7 4 2 4 4 2 2 1 O $ X e i.u , * 6 3 2 3 * 2 2 3 2 3 2 7 3 6 2 - y O X X ; ",
"o ;.x > X X X * % 2 2 1 % o @ X o - 8 8 1 X $ # 5 2 1 2 2 1 3 w 1 = # . X X , e 8 4 O X @ & & X > & & = 2 1 2 1 4 * = 3 6 1 6 t ",
"& , - r 7 : : = o - r = o o % : 7 q u.t.o.< & X & @ o & @ O 8 ,.& + o X X 4 H y.y.2.t * # o X & t . X % @ & 5 o = 7 0 ] r.X.r.2 ",
"& @ X , f.N.N.*.= 5 d., X > K Z.Z._ #.! x.z.'           X - p E Q a > & $ e.B.E P ( a.*.Q 1 X * & .     O C h.* * B.v.! E P #.R ",
"& B.x.*.Q E E B.8 & - u , K P E U E &._ h._ E P N.h.S 7 7 = > y & & - P c.B.[ E @.! P a a a.' E B.v.( - = i > % &.@.! ! @.E @.s ",
"] E E Q ] #.+.E o . o z , $.X.! E } K E L P Q X.! Q Q ' K 1 X X . = S +.L E +.#.@.5._ K E d d d 8 w c = X @ % ' ! E X.{ ..! E K ",
"z.K E R u.R E ! w = . & @ <.d #.K d d C d P A d X.D ~ y.P x o   . 7 B J a S P E D 9.~ s D d S P i B w c + X X z.X.E Q } E E K d ",
"E d P d } j K #.R 2 . % 1 M s E p C p p a S d R p s a a i 7 o   . <.n D a p D P s s i s p p p L 8 8 7 7 > % & Q a P K d P P d E ",
"E K P s s p a s +.2 X O B s p L p s i p p s s P a S a a s x - X % _ j a d a a d Y d i s s i a s i i 8 9 c o % X.T s s s K d p P ",
"K d A d p p p i a 6 @ + 1.f p j p p j p s i a s a a i p i t d . X v d a { d p a H s s B s s i i a 0 9 7 7 o X 8 G p s s A a p d ",
"a p d a p p i 8 8 2 . O D s a Z p j ! p p d a p p i i a i 8 6     b d p a a p d s i s s i s a i p i i 8 7 = X % s p B d S s s p ",
"p d K a p y 8 5 7 < . O M s p p p p p p s ( s s i i 7 i 7 7 4     b d a a p p D s i i i s s a 4 p p i 7 3 4 o   p s d p p p S p ",
"a i a a i 9 7 & # @ X = i i a i p p p a p p a a 6 i 7 p 7 7 4   . b d i a i s i a 7 i p p D d 3 p p 9 7 2 & . . a d } d a i a a ",
"a a i q i t 7 7 * X   O i a a D H p 9 a 9 p s a t t 2 7 7 7 <     y a a a a p s a i a a i D s i p i 7 6 3 % X . 9 a d a i a a i ",
"i i 9 i i 0 7 3 & . X X 8 i a d I i t s t n R a q i 6 7 7 2 =     7 i i s p i s i a M a a d a 9 p 9 7 6 2 o . @ 8 i i a q a a 0 ",
"9 i 7 7 8 9 7 7 & X o * 7 i i i H a p p p i a a 7 9 7 7 7 2 # X X 2 7 9 t s 9 i 8 i 0 9 i i i 7 p 7 7 6 3 & . 7 7 i w i i i a i ",
"p 8 7 7 7 7 7 2 * ; u ; 6 8 8 p 9 p p i 9 t q 7 7 7 7 7 7 2 2 X & 6 7 7 9 i i 8 7 i 9 7 7 8 8 7 7 2 3 2 2 X . 7 7 9 i i q i s 8 ",
"a 7 7 7 7 7 7 3 = * > & - 7 7 9 p a a p 9 9 7 9 7 7 7 7 7 2 = X & 6 3 8 9 9 9 7 7 9 7 7 7 7 6 6 6 6 3 3 & X . 7 2 8 i 9 7 9 i 7 ",
"9 7 7 7 7 3 3 3 * 4 1.@ X > 7 7 9 9 9 9 7 7 7 7 3 3 3 7 3 2 o X * ; 6 3 2 2 6 6 6 6 6 6 6 6 4 2 6 2 2 & O @ . ; 7 7 9 7 7 7 9 7 ",
"7 7 7 7 7 8 3 & . d Z + y = & 7 7 2 2 7 3 3 7 7 7 2 3 3 7 = 1 ] B.7 = = 2 2 2 6 2 3 3 2 3 2 5 2 7 2 ; ; M > u N.& 2 6 7 7 6 6 7 ",
"7 7 7 2 3 2 3 &   V % o i y - % & 3 3 7 ; & . . 7 2 2 & & + t @   & t o % 2 3 & & & % . X   @ *   X   X @ . M p . 3 3 3 7 3 3 3 ",
"& O $ O o & O X   1 - , 1 , $ X X ; + ; . X . . o o o X o & 1 - O , 4 X X = - , o X o X @ o @ X t w O o @ , 2 > X o * 1 3 2 = & ",
", < :.< + > + @ = 2 C <.] ~ 2.% @ t r # X @ > ; - ; , ; > 3 Q _ Q 1.>.+ X % t 1.$ O - 4 1.[ <., 4 , , Q 1.w.H 8 : X X O 1 = o X ",
"f.q.!  .+.i.p.i.Y D Q _ _ s.v.8 . , t # O ! } A +.*.p.+.q.R Q Q Q &.#.e - & c 1 * B t.p.x.| ` a.p.X.T +.| ` E P p.& O i >.+ . O ",
"B.Y d Y Q ( ( ( l.d Q E Q ! ! A . O & . O ! ! Q *.v.g.Q ! ! +.R P Q _ p.P @ = . * D s.' _ #.! _ _ #.k Q a._ P E ( 2 = > i o . X.",
"l j C k y.Q E E ] K P j P j P W M . . O P M T W j ~ k d T Q J j E E ! 8.g.: X . V P ( j d P E E P ! L E ' Q j E d 7 - - M = X Q ",
"p } P s g d d P E E P s d a d d q @ @ Z d.0.M L a h M a d D d d E P k E ] 0 o @ #.k d a p s d Y E T j j K d a d a H ;., > o . P ",
"p p a a s D s a 3.K p s J a a 7 R . 1 T a F d L a a a a a a p d E d a K 9 A @ . &.j S a p p p p p K d i p a a i 7 7 7 = . X M a ",
"p d P s p p p a a D p s K s a 7 7 X 1 P d } s a a a p s o.a a a a p a i 8 7 = & a p p p a a | s p s C s p a p p a 7 7 3 X   t i ",
"p p a p a a p s p p p p p p i 7 7 & 1 a a a a p L i a a p p p p i p a i 8 7 o & K d p p p a a i p s Z s 9 p p 7 t 7 7 < X ; 3 a ",
"p p p p a i a } i a a a i i 0 8 & 1 M a a a a a d 0 p p p p i a p p i 0 7 7 o o w i p p i a s 9 p p d p i p p 7 q 7 6 ; X X 2 a ",
"i i 8 i a a a a 8 i i i 0 u 8 7 % 1 Z a a i i a i i p p a i e a 7 9 i i 8 7 o @ 7 i p i 8 i p i 8 i i i i 9 7 7 9 7 2 ; + X ; 7 ",
"8 i 7 9 i i i p 7 9 7 8 9 7 7 7 . ; q i p i q p 9 8 s i i i t i 7 7 7 7 7 7 o X 7 8 i 8 7 i 9 i 7 8 8 8 7 7 7 7 3 3 2 , 9.H 3 ; ",
"* 7 7 8 8 9 8 7 7 7 7 7 7 7 3 3 & = 7 9 i i 9 7 7 9 t 7 6 7 7 7 7 7 7 5 2 7 = & & 4 8 7 7 8 7 8 7 7 7 7 7 7 7 7 3 3 2 & : p w.. ",
"& - = = ; 7 7 7 7 7 7 3 3 3 3 7 & t > 7 9 9 9 7 7 8 8 2 6 7 7 7 3 3 2 6 7 > & t.& 5 7 7 7 7 7 7 7 3 3 3 3 3 3 3 3 3 1 ; t > H # ",
". * , e., = 7 7 8 & 2 3 3 2 & . & B & & 7 2 3 7 7 2 7 7 7 2 2 3 3 7 = .   . M & . @ & 7 7 7 7 7 7 7 8 7 3 2 6 3 3 2 ; . # # ; # ",
"X X X > V - & & & . . & X % & & * & @ . . & 2 3 2 2 * * & X     . . + o % * & &       @ & X   * & & & 3 3 2 = @ ; .   . , f.7 # ",
"X X + X % 7 i.i . > , , > , 1 > x.8.y.9 + + X & & @ X X + + - - o = w.x.x.4.z.&.3.j.z.#.4 @ - v.o & = y + X @ X . . X 6 i.*.7 O ",
"* : >.4 = i n + @ +.w.1.L 1.0.Z [ _ | } { O.+ & = o + * :.{ ` M M M { | ] _ d.@.3.} ] { 2.w.H =.v & o u h = o X + : 6 :.| ! 1.S ",
"C C H - - i S # . u.) ' Q _ ( h.Q _ u.E Q Z = & i 4 t.A $.P j Y ( R +.#.! ! ! E ! E W @.3.4.! Q d & X o o o O + u.a.y.o.Q E ( a.",
"s s j 1.w = - & , _ P +.#.+.Q ( K j R K d ` -.@ X 4 i.d P E Z k g.m K ! +.@.E E +.Q W Q E @.E E P 3 o O % - 1.p.&.&.| t.` L P g ",
"p d K g B O X * f.K s s d P P Q s p s s s S q X X 1 H s P K d d Q d d K d P d E Q E W W E @.j T E 7 > b , V g.! Q P j d K d K T ",
"p p d p a o . = B.d p s Z d d #.p d B p p q 4 X X C K s K d a s d Z D d a K d d d d C j d d p d T 7 O > + D m s s d d A d p d d ",
"p p p p i 6 X * P p p p p a a 3.p p a s i 8 4 %   K p s p p p p p p p p p p p 3.p d C s p K d p 7 7 o . X i p s i s p p a K d p "
};
