/* XPM */
static char *d2FsbA__[] = {
/* columns rows colors chars-per-pixel */
"64 64 4 1 ",
"  c #434F65",
". c #353E50",
"X c #6F7F9F",
"o c #5A6988",
/* pixels */
"         .......         .......         .......         .......",
"         XXXXXXX         XXXXXXX         XXXXXXX         XXXXXXX",
"         Xooo oX         Xooo oX         Xooo oX         Xooo oX",
".... ....... ....... ....... ....... ....... ....... ....... ...",
"XXXX XXXXXXX XXXXXXX XXXXXXX XXXXXXX XXXXXXX XXXXXXX XXXXXXX XXX",
"oooX XoooooX XoooooX XoooooX XoooooX XoooooX XoooooX XoooooX Xoo",
"oooo  ooooo  ooooooo  ooooo  ooooooo  ooooo  ooooooo  ooooo  ooo",
" .......         .......         .......         .......        ",
" XXXXXXX         XXXXXXX         XXXXXXX         XXXXXXX        ",
" XoooooX         XoooooX         XoooooX         XoooooX        ",
" oo oooo         oo oooo         oo oooo         oo oooo        ",
"....  ...... .......  ...... .......  ...... .......  ...... ...",
"XXXX .XXXXXX XXXXXXX .XXXXXX XXXXXXX .XXXXXX XXXXXXX .XXXXXX XXX",
"oooX XoooooX XoooooX XoooooX XoooooX XoooooX XoooooX XoooooX Xoo",
"oooo ooooooo ooooooo ooooooo ooooooo ooooooo ooooooo ooooooo ooo",
"                                                                ",
"         .......         .......         .......         .......",
"         XXXXXXX         XXXXXXX         XXXXXXX         XXXXXXX",
"         Xooo oX         Xooo oX         Xooo oX         Xooo oX",
".... ....... ....... ....... ....... ....... ....... ....... ...",
"XXXX XXXXXXX XXXXXXX XXXXXXX XXXXXXX XXXXXXX XXXXXXX XXXXXXX XXX",
"oooX XoooooX XoooooX XoooooX XoooooX XoooooX XoooooX XoooooX Xoo",
"oooo  ooooo  ooooooo  ooooo  ooooooo  ooooo  ooooooo  ooooo  ooo",
" .......         .......         .......         .......        ",
" XXXXXXX         XXXXXXX         XXXXXXX         XXXXXXX        ",
" XoooooX         XoooooX         XoooooX         XoooooX        ",
" oo oooo         oo oooo         oo oooo         oo oooo        ",
"....  ...... .......  ...... .......  ...... .......  ...... ...",
"XXXX .XXXXXX XXXXXXX .XXXXXX XXXXXXX .XXXXXX XXXXXXX .XXXXXX XXX",
"oooX XoooooX XoooooX XoooooX XoooooX XoooooX XoooooX XoooooX Xoo",
"oooo ooooooo ooooooo ooooooo ooooooo ooooooo ooooooo ooooooo ooo",
"                                                                ",
"         .......         .......         .......         .......",
"         XXXXXXX         XXXXXXX         XXXXXXX         XXXXXXX",
"         Xooo oX         Xooo oX         Xooo oX         Xooo oX",
".... ....... ....... ....... ....... ....... ....... ....... ...",
"XXXX XXXXXXX XXXXXXX XXXXXXX XXXXXXX XXXXXXX XXXXXXX XXXXXXX XXX",
"oooX XoooooX XoooooX XoooooX XoooooX XoooooX XoooooX XoooooX Xoo",
"oooo  ooooo  ooooooo  ooooo  ooooooo  ooooo  ooooooo  ooooo  ooo",
" .......         .......         .......         .......        ",
" XXXXXXX         XXXXXXX         XXXXXXX         XXXXXXX        ",
" XoooooX         XoooooX         XoooooX         XoooooX        ",
" oo oooo         oo oooo         oo oooo         oo oooo        ",
"....  ...... .......  ...... .......  ...... .......  ...... ...",
"XXXX .XXXXXX XXXXXXX .XXXXXX XXXXXXX .XXXXXX XXXXXXX .XXXXXX XXX",
"oooX XoooooX XoooooX XoooooX XoooooX XoooooX XoooooX XoooooX Xoo",
"oooo ooooooo ooooooo ooooooo ooooooo ooooooo ooooooo ooooooo ooo",
"                                                                ",
"         .......         .......         .......         .......",
"         XXXXXXX         XXXXXXX         XXXXXXX         XXXXXXX",
"         Xooo oX         Xooo oX         Xooo oX         Xooo oX",
".... ....... ....... ....... ....... ....... ....... ....... ...",
"XXXX XXXXXXX XXXXXXX XXXXXXX XXXXXXX XXXXXXX XXXXXXX XXXXXXX XXX",
"oooX XoooooX XoooooX XoooooX XoooooX XoooooX XoooooX XoooooX Xoo",
"oooo  ooooo  ooooooo  ooooo  ooooooo  ooooo  ooooooo  ooooo  ooo",
" .......         .......         .......         .......        ",
" XXXXXXX         XXXXXXX         XXXXXXX         XXXXXXX        ",
" XoooooX         XoooooX         XoooooX         XoooooX        ",
" oo oooo         oo oooo         oo oooo         oo oooo        ",
"....  ...... .......  ...... .......  ...... .......  ...... ...",
"XXXX .XXXXXX XXXXXXX .XXXXXX XXXXXXX .XXXXXX XXXXXXX .XXXXXX XXX",
"oooX XoooooX XoooooX XoooooX XoooooX XoooooX XoooooX XoooooX Xoo",
"oooo ooooooo ooooooo ooooooo ooooooo ooooooo ooooooo ooooooo ooo",
"                                                                "
};
